<?xml version="1.0"?><svg xmlns="http://www.w3.org/2000/svg" version="1.2" baseProfile="tiny" width="1080" height="1080" viewBox="-38.2383 9.515 1.842400000000005 2.0535999999999994" stroke-linecap="round" stroke-linejoin="round"><g id="UF28UF" transform="scale(0.0001,-0.0001)"><path id="28" d="M-369180,-101247l-294,500l-10,51l-51,468l-1803,1090l-925,161l-702,671l-1695,826l-1936,698l-63,123l-1763,865l-519,399l-1092,245l-577,-726l575,-3171l1014,-142l1113,-1140l-111,-784l274,-333l89,-516l-31,-930l254,-492l-1044,-1051l324,-738l90,-832l-36,-883l-1626,-683l-696,563l-1028,-172l-600,74l-334,-893l280,-1311l297,-118l746,-830l591,-1558l656,-176l-129,-1442l120,-45l1491,-1344l331,-391l1270,-472l407,505l537,-341l2109,936l266,163l809,1527l1057,1280l1199,2043l1819,2131l1798,1134l1867,944l903,395l-910,737l-25,-13l-726,88l-253,1144l-446,491l-518,-186l-179,4l-188,55l-1245,761l-55,104l-322,309l-354,228Z" /></g></svg>