<?xml version="1.0"?><svg xmlns="http://www.w3.org/2000/svg" version="1.2" baseProfile="tiny" width="1080" height="1080" viewBox="-48.7552 1.0528 6.958500000000001 9.2057" stroke-linecap="round" stroke-linejoin="round"><g id="UF21UF" transform="scale(0.0001,-0.0001)"><path id="21" d="M-480254,-47783l-330,-259l-1362,-1068l-178,-139l-2395,-1873l-3033,-2370l1491,127l450,1063l739,363l1233,255l1389,-671l401,-215l1158,-145l544,335l774,-16l706,-657l392,-813l1471,-288l1201,-478l806,-1585l28,-156l346,-1935l44,-263l-15,-1547l92,-566l495,-1816l-496,-1726l51,-748l-399,-841l-311,-1157l-243,-1433l-266,-1762l-1133,-1347l-847,-111l611,-829l333,-569l1078,369l647,-714l-1134,-1033l888,10l730,-1081l1831,-2614l565,-335l1754,-2167l2082,1078l1980,580l1074,-802l355,-995l-783,-2447l-1827,-657l-557,150l-637,-1659l-571,-592l-149,-2638l-1202,-1436l-304,-633l1284,2l140,-712l1067,-767l-275,-808l928,-1214l1215,22l936,-1485l-532,-271l-520,-1531l1315,-572l378,-1070l299,-1729l1204,-1058l1299,2l1717,-4l108,-673l661,-78l1038,3190l-235,679l363,1917l-122,1170l508,801l-1026,1402l-425,3043l-589,1113l567,1402l976,710l1344,3282l428,1371l799,936l629,2696l-175,257l825,1916l1151,882l2551,795l963,199l40,14l1680,1195l1269,-343l1251,1671l1792,1078l732,23l369,605l267,576l1330,1947l1858,347l1767,676l1163,-161l1489,-1019l340,-245l634,118l1433,665l2551,190l777,1007l287,1434l391,2264l-1311,1397l-707,369l-473,1919l213,447l-198,2501l907,722l358,892l1526,1355l168,1283l-908,2950l-29,67l-604,2006l1030,1894l-985,1125l-157,248l-221,1402l436,532l868,879l654,1003l689,947l502,928l-120,971l504,624l164,214l540,513l663,1135l261,-379l704,90l1272,301l710,134l759,849l22,796l1380,443l58,65l1107,1557l724,997l-377,450l84,1583l188,273l-2358,4l-283,426l-1513,-52l-410,-657l-2240,546l-1539,780l-3733,1686l-2226,980l-742,200l-665,-35l-1052,-431l216,-1011l-757,645l-412,-842l-1182,-88l-444,798l966,338l503,1186l-1261,-87l-415,-1273l-762,20l-121,-933l-810,-516l-1476,-1822l-696,-243l-1174,77l901,583l829,1274l566,180l-161,906l205,598l-1420,-517l-99,-30l-371,-129l-838,-136l-1054,-3117l-148,-1447l-707,-821l-526,-191l-435,42l-709,280l105,1199l19,880l948,2085l1973,2560l-1046,1955l-1818,-1513l-333,158l1804,2552l-804,-39l956,409l-696,998l176,663l-812,589l-1441,-197l578,580l-982,207l1635,877l-871,599l-1303,-608l-362,139l295,1923l-927,-1487l-551,744l-1878,-25l-722,-1105l-556,16l152,2641l-1669,-1469l-389,1717l-964,335l-791,10l-914,810l-78,53l-74,47l-502,-304l-72,1602l-1001,-1494l-406,1492l-1095,-1490l-575,-799l579,-554l-724,-1401l148,-1454l-499,-1044l-1040,-144l52,-647l990,-248l-124,-838l-398,-1344l-201,-1051l-1330,-1194l-231,-1394l36,-577l-710,-1460l-993,-226l-635,-951l800,-1112l-915,-478l46,-2005l-924,-824l-433,-1256l-1321,-751l-42,-996l-898,-875l77,-403l-581,-2570l-2585,-2471l-246,-1369l-702,-418l-1732,-2726l-648,-486l-1362,-61l-2092,-1636M-444815,-27266l-1047,-881l-519,-1663l772,-415l819,646l-25,2313M-449662,-12711l-626,-469l397,-836l1222,729l-993,576Z" /></g></svg>