<?xml version="1.0"?><svg xmlns="http://www.w3.org/2000/svg" version="1.2" baseProfile="tiny" width="1080" height="1080" viewBox="-46.0124 2.7573 5.6419 8.1617" stroke-linecap="round" stroke-linejoin="round"><g id="UF22UF" transform="scale(0.0001,-0.0001)"><path id="22" d="M-407643,-82440l1604,1403l282,732l0,1l150,331l168,357l-110,1432l-1187,567l518,1034l-931,1777l626,473l1038,406l248,742l176,1076l467,1324l344,1432l545,1321l-1064,704l-2333,567l-262,758l-535,997l108,1593l-731,1171l-55,1188l-486,589l327,734l-362,2074l20,1234l-215,1492l-77,544l80,2670l-1511,806l-411,672l-1284,1542l164,596l582,1448l-648,917l622,1059l285,1005l297,429l203,1425l10,13l-413,595l-435,1030l-460,499l-168,717l64,1836l-949,288l-330,1223l642,695l-210,1063l-904,360l919,1701l616,1260l-106,831l-512,494l-1135,153l-2134,416l-1322,1061l-442,10l-84,-1583l377,-450l-724,-997l-1107,-1557l-58,-65l-1380,-443l-22,-796l-759,-849l-710,-134l-1272,-301l-704,-90l-261,379l-663,-1135l-540,-513l-164,-214l-504,-624l120,-971l-502,-928l-689,-947l-654,-1003l-868,-879l-436,-532l221,-1402l157,-248l985,-1125l-1030,-1894l604,-2006l29,-67l908,-2950l-168,-1283l-1526,-1355l-358,-892l-907,-722l198,-2501l-213,-447l473,-1919l707,-369l1311,-1397l-391,-2264l-287,-1434l-777,-1007l-2551,-190l-1433,-665l-634,-118l-340,245l-1489,1019l-1163,161l-1767,-676l-1858,-347l-1330,-1947l-267,-576l-369,-605l-732,-23l-1792,-1078l-1251,-1671l-1269,343l-1680,-1195l-40,-14l-963,-199l-2551,-795l-1151,-882l-825,-1916l175,-257l-629,-2696l-799,-936l-428,-1371l-1344,-3282l-976,-710l-567,-1402l589,-1113l425,-3043l1026,-1402l-508,-801l122,-1170l-363,-1917l235,-679l-1038,-3190l-661,78l1015,-1204l142,1068l1527,243l205,846l1203,474l466,-1089l659,-841l947,-1440l-514,-644l329,-1357l1685,-1774l1639,-170l1374,-795l809,338l1970,1263l-20,718l910,603l773,-229l1561,1000l1789,-932l821,538l932,1711l743,249l790,909l777,2276l665,152l-155,1396l557,762l-1324,812l-648,2143l635,905l40,49l1762,1011l651,434l1028,421l1530,-1539l665,194l1441,6l152,30l1006,-314l73,-820l1814,-1088l799,733l872,291l1098,219l1770,1783l900,333l1569,258l1553,-196l592,364l1220,1530l91,742l1780,718l1342,1673l301,671l230,-3l1518,743l570,994l1710,1352l516,-476l651,756l817,744l158,523Z" /></g></svg>