<?xml version="1.0"?><svg xmlns="http://www.w3.org/2000/svg" version="1.2" baseProfile="tiny" width="1080" height="1080" viewBox="-38.7652 6.0285 3.9624999999999986 2.2707000000000006" stroke-linecap="round" stroke-linejoin="round"><g id="UF25UF" transform="scale(0.0001,-0.0001)"><path id="25" d="M-375718,-74891l501,496l899,828h461l717,673l533,152l838,-354l1237,-699l395,-243l283,-718l-398,-211l-5,-3l-536,-196l-1186,-1187l369,-627l108,-189l-18,-629l-187,-204l-1795,-1484l2006,-751l54,-1013l-160,-454l1396,-1193l661,-95l462,461l1205,633l1008,341l584,446l560,1751l361,344l902,-148l469,1060l1359,-213l469,676l898,-201l1052,-260l183,-26l599,228l624,237l557,167l354,92l1100,368l604,411l925,174l251,1326l70,286l605,131l715,280l203,208l97,67l527,276l1264,-48l1684,-695l3,-380l1313,-396l199,-90l312,1607l-31,1434l-366,1885l-166,263l-101,516l-296,1122l-261,983l-67,465l-335,1182l-35,1157l-1440,-179l-333,-477l-482,25l-304,287l-1169,-170l-232,266l-433,224l-343,30l-1393,25l-554,297l-268,76l-1097,-360l-66,-5l-905,-53l-948,42l-1309,642l-4,-1l-780,-105l-520,-32l-698,636l172,528l-159,255l-490,-104l-1604,-840l-238,-928l467,-413l433,-1087l-825,187l-128,-1229l-102,-1086l-165,13l-77,-340l-870,-534l-1051,137l298,781l-1048,1053l-752,-258l-489,-264l-445,737l-317,-246l-401,-199l-768,-443l-824,-262l-293,924l-504,432l-1704,-210l200,1773l835,956l-76,461l548,827l1004,952l767,606l-170,1045l-826,195l-1223,-566l-1431,-667l-943,-244l-928,-8l-676,-689l-666,-872l-762,-785l-1074,-632l-441,109l-493,-585l-1088,391l-597,-223l-551,489l-1042,533l-104,732l-1041,-255l241,-656l-721,-1110l34,28l-420,-981l-234,-786l201,-509l385,-253l-578,-647l-935,-638l2,-830l912,-523l40,-15l256,-1361l242,-363l656,-318l50,-831l-1336,-2437l-321,-432l1215,-1324l1365,362l229,-24l792,421l441,-607l890,-813l905,246l113,-232l506,467l688,-67l429,128l545,681l1361,409l139,314l76,165l108,121l1150,713l481,368Z" /></g></svg>