<?xml version="1.0"?><svg xmlns="http://www.w3.org/2000/svg" version="1.2" baseProfile="tiny" width="1080" height="1080" viewBox="-46.5599 8.5475 9.218800000000002 9.7897" stroke-linecap="round" stroke-linejoin="round"><g id="UF29UF" transform="scale(0.0001,-0.0001)"><path id="29" d="M-393568,-85475l-1193,-453l-1699,-669l-273,-1252l-2197,-439l186,-1079l-1040,-1182l-265,-49l-1250,-505l-789,465l-644,-186l-832,-2946l-617,249l-2051,-1308l-920,341l-520,34l973,2593l-1511,1062l-300,1257l-1080,1122l-1444,616l-103,766l-1646,-315l-800,277l-230,3l-301,-671l-1342,-1673l-1780,-718l-91,-742l-1220,-1530l-592,-364l-1553,196l-1569,-258l-900,-333l-1770,-1783l-1098,-219l-872,-291l-799,-733l-1814,1088l-73,820l-1006,314l-152,-30l-1441,-6l-665,-194l-1530,1539l-1028,-421l-651,-434l-1762,-1011l-40,-49l-635,-905l648,-2143l1324,-812l-557,-762l155,-1396l-665,-152l-777,-2276l-790,-909l-743,-249l-932,-1711l-821,-538l-1789,932l-1561,-1000l-773,229l-910,-603l20,-718l-1970,-1263l-809,-338l-1374,795l-1639,170l-1685,1774l-329,1357l514,644l-947,1440l-659,841l-466,1089l-1203,-474l242,-1032l-989,-646l-220,-1329l-3074,-1645l-786,-1799l-543,-115l-68,-1228l-743,-42l-2114,-3264l-69,-1062l1206,-1494l889,148l2376,-998l319,-180l-636,-3l-2172,-67l539,-556l-708,-620l410,-645l-434,-500l682,-780l-761,-1077l177,-509l-4,-2501l816,-272l234,-1297l684,27l-1,-1l-984,-716l143,-1882l-456,-1908l2150,367l-1857,-1458l-290,-1891l352,-640l1893,594l349,-379l-1802,-1406l395,-296l-385,-1131l848,-249l-730,-1045l-285,-2393l521,-627l-149,-389l429,-1079l1240,-750l1529,-1233l-929,-914l112,-2092l-321,-141l-41,-82l-143,-1972l18,6l715,-909l-1110,-2991l1054,1108l2319,335l1229,1063l3112,1804l1001,890l1098,-83l555,725l1633,813l438,994l918,327l1842,1301l1454,554l1158,284l2503,-306l761,98l1864,-652l-352,-485l-628,-1747l-23,-901l1713,-628l1812,-1001l2,-1l438,252l1758,1206l1362,186l2361,-569l668,-567l2534,-1750l1030,-432l367,-313l2014,-995l120,-113l923,390l1248,-847l951,-50l1431,743l80,11l424,-377l3038,-2723l918,-827l24,-20l197,-1436l120,-1047l1877,-287l3257,1244l491,-665l671,468l557,-616l1251,-687l698,360l250,-441l1893,22l1082,-1036l1231,-947l896,18l580,-1138l-610,-1705l-994,-635l-930,-1015l-477,-1302l-1176,61l-377,-1052l62,-182l254,-2044l-1197,110l-64,-85l-259,113h-587l-864,-2622l309,-1341l-569,-725l852,-912l365,-411l685,-1216l704,-55l1039,-1193l165,6l118,-1606l-105,-855l20,-12l3086,-1974l2440,-1582l324,1049l1442,2344l2337,1699l1202,1430l-544,2390l-204,2847l946,2688l-241,1310l378,634l417,2623l533,901l-23,999l627,1534l956,2430l-408,827l-413,1013l-383,2799l-231,3003l-311,3022l-348,360l279,2317l166,968l288,2011l601,3106l-229,344l-161,236l-44,64l-162,1256l199,447l774,316l-418,945l405,854l-584,707l320,1763l1213,761l1542,1222l577,26l1169,-22l1644,1040l241,302l2500,2835l1369,1890l1234,1695l842,1397l1729,3583l1717,2984l-266,-163l-2109,-936l-537,341l-407,-505l-1270,472l-331,391l-1491,1344l-120,45l129,1442l-656,176l-591,1558l-746,830l-297,118l-280,1311l334,893l600,-74l1028,172l696,-563l1626,683l36,883l-90,832l-324,738l1044,1051l-254,492l31,930l-89,516l-274,333l111,784l-1113,1140l-1014,142l-575,3171l577,726l-745,739l-1272,244l-99,637l-227,232l-753,1814l-106,1584l-800,-472l-1105,772l442,943l-1006,353l-399,-1269l-833,386l-129,564l-1484,778l-975,-200l-1121,729l-1640,213l-441,1265l-842,363Z" /></g></svg>