<?xml version="1.0"?><svg xmlns="http://www.w3.org/2000/svg" version="1.2" baseProfile="tiny" width="1080" height="1080" viewBox="-38.2376 8.8211 3.0848999999999975 1.6758000000000006" stroke-linecap="round" stroke-linejoin="round"><g id="UF27UF" transform="scale(0.0001,-0.0001)"><path id="27" d="M-380121,-91560l-802,-167l-641,-774l-812,-797l227,-232l99,-637l1272,-244l745,-739l1092,-245l519,-399l1763,-865l63,-123l1936,-698l1695,-826l702,-671l925,-161l1803,-1090l51,-468l10,-51l294,-500l354,-228l322,-309l55,-104l1245,-761l188,-55l179,-4l518,186l446,-491l253,-1144l726,-88l25,13l910,-737l945,1523l418,805l2281,2133l688,1101l580,848l494,676l655,771l661,265l1652,1972l339,449l521,846l857,717l477,556l440,752l538,908l886,1508l-823,307l-1158,225l-582,227l-1308,169l-304,-217l-123,-37l-695,-358l-713,-272l-1033,391l-184,-21l-1056,-198l-378,-117l-449,-44l-949,-493l167,-600l-97,-102l-745,-169l-958,-1293l-644,-443l-470,-50l-975,-394l-1245,-690l-748,388l-971,126l-830,40l-570,-1010l-428,181l-757,519l-23,-101l-1115,518l-292,502l-309,-114l-493,744l-1171,1244l-1235,598l-62,49l-1131,-404l-607,679l-563,895l-708,-863l-1254,-1647l-605,-586Z" /></g></svg>