<?xml version="1.0"?><svg xmlns="http://www.w3.org/2000/svg" version="1.2" baseProfile="tiny" width="1080" height="1080" viewBox="-41.3583 7.2742 6.530299999999997 2.2087000000000003" stroke-linecap="round" stroke-linejoin="round"><g id="UF26UF" transform="scale(0.0001,-0.0001)"><path id="26" d="M-413583,-87076l800,-277l1646,315l103,-766l1444,-616l1080,-1122l300,-1257l1511,-1062l-973,-2593l520,-34l920,-341l2051,1308l617,-249l832,2946l644,186l789,-465l1250,505l265,49l1040,1182l-186,1079l2197,439l273,1252l1699,669l1193,453l842,-363l441,-1265l1640,-213l1121,-729l975,200l1484,-778l129,-564l833,-386l399,1269l1006,-353l-442,-943l1105,-772l800,472l106,-1584l753,-1814l812,797l641,774l802,167l605,586l1254,1647l708,863l563,-895l607,-679l1131,404l62,-49l1235,-598l1171,-1244l493,-744l309,114l292,-502l1115,-518l23,101l757,-519l428,-181l570,1010l830,-40l971,-126l748,-388l1245,690l975,394l470,50l644,443l958,1293l745,169l97,102l-167,600l949,493l449,44l378,117l1056,198l184,21l1033,-391l713,272l695,358l123,37l304,217l1308,-169l582,-227l1158,-225l823,-307l225,516l274,774l150,941l396,814l873,2427l323,1414l198,702l483,1106l325,854l-131,1140l-40,287l-31,1286l143,1392l-199,90l-1313,396l-3,380l-1684,695l-1264,48l-527,-276l-97,-67l-203,-208l-715,-280l-605,-131l-70,-286l-251,-1326l-925,-174l-604,-411l-1100,-368l-354,-92l-557,-167l-624,-237l-599,-228l-183,26l-1052,260l-898,201l-469,-676l-1359,213l-469,-1060l-902,148l-361,-344l-560,-1751l-584,-446l-1008,-341l-1205,-633l-462,-461l-661,95l-1396,1193l160,454l-54,1013l-2006,751l1795,1484l187,204l18,629l-108,189l-369,627l1186,1187l536,196l5,3l398,211l-283,718l-395,243l-1237,699l-838,354l-533,-152l-717,-673h-461l-899,-828l-501,-496l-481,-368l-1150,-713l-108,-121l-76,-165l-139,-314l-1361,-409l-545,-681l-429,-128l-688,67l-506,-467l-113,232l-905,-246l-890,813l-441,607l-792,-421l-229,24l-1365,-362l-1215,1324l-25,-50l-1772,-1236l-673,-937l-39,-14l-520,329l-750,-449l-96,866l-440,528l-1198,534l-1032,455l-223,111l-557,360l-131,1010l-852,-127l-533,552l-1421,1019l-1488,-130l-145,15l-2525,-332l-849,535l-1034,-112l-882,-380l-901,487l-248,-742l-1038,-406l-626,-473l931,-1777l-518,-1034l1187,-567l110,-1432l-168,-357l-150,-331l0,-1l-282,-732l-1604,-1403l-158,-523l-817,-744l-651,-756l-516,476l-1710,-1352l-570,-994l-1518,-743Z" /></g></svg>