<?xml version="1.0"?><svg xmlns="http://www.w3.org/2000/svg" version="1.2" baseProfile="tiny" width="1080" height="1080" viewBox="-41.4144 2.8034 4.161700000000003 5.0542" stroke-linecap="round" stroke-linejoin="round"><g id="UF23UF" transform="scale(0.0001,-0.0001)"><path id="23" d="M-403719,-28124l-831,90l-1351,-430l-1703,-24l-3413,-521l-1695,137l-515,-341l512,-494l106,-831l-616,-1260l-919,-1701l904,-360l210,-1063l-642,-695l330,-1223l949,-288l-64,-1836l168,-717l460,-499l435,-1030l413,-595l-10,-13l-203,-1425l-297,-429l-285,-1005l-622,-1059l648,-917l-582,-1448l-164,-596l1284,-1542l411,-672l1511,-806l-80,-2670l77,-544l215,-1492l-20,-1234l362,-2074l-327,-734l486,-589l55,-1188l731,-1171l-108,-1593l535,-997l262,-758l2333,-567l1064,-704l-545,-1321l-344,-1432l-467,-1324l-176,-1076l901,-487l882,380l1034,112l849,-535l2525,332l145,-15l1488,130l1421,-1019l533,-552l852,127l131,-1010l557,-360l223,-111l1032,-455l1198,-534l440,-528l96,-866l750,449l520,-329l39,14l673,937l1772,1236l25,50l321,432l1336,2437l-50,831l-656,318l-242,363l-256,1361l-40,15l-912,523l-2,830l935,638l578,647l-385,253l-201,509l234,786l420,981l-34,-28l721,1110l-241,656l-79,627l507,700l537,1016l612,641l652,-204l647,119l227,556l887,713l42,143l1007,1697l-242,825l547,491l1259,1226l894,1841l259,194l21,570l-34,210l1111,1669l368,1259l1732,405l207,49l895,229l1042,267l-732,1311l-2145,556l-627,274l-1664,1909l-756,447l-3026,2796l-756,949l-1785,1834l-620,1166l-1238,108l-648,142l-1542,1337l-1255,831l-1325,587l-1002,805l-922,1067l-1223,362l-1713,1041l-1704,823l-2214,1305l-2429,547l-1866,-7Z" /></g></svg>