<?xml version="1.0"?><svg xmlns="http://www.w3.org/2000/svg" version="1.2" baseProfile="tiny" width="1080" height="1080" viewBox="-38.5704 4.8314 3.6019000000000005 2.0968" stroke-linecap="round" stroke-linejoin="round"><g id="UF24UF" transform="scale(0.0001,-0.0001)"><path id="24" d="M-365044,-63865l1604,840l490,104l159,-255l-172,-528l698,-636l520,32l780,105l4,1l1309,-642l948,-42l905,53l66,5l1097,360l268,-76l554,-297l1393,-25l343,-30l433,-224l232,-266l1169,170l304,-287l482,-25l333,477l1440,179l-634,1764l-15,244l-605,1030l-39,436l-232,1581l-331,839l-495,1546l-235,1311l-287,952l-702,1356l-564,1113l-1071,1130l-1276,430l-1738,366l-1174,179l-1292,80l-620,-257l-2088,-249l-985,214l-3088,-2l-1401,1086l-1043,537l-1786,-293l-824,665l-317,500l-1042,-267l-895,-229l-207,-49l-1732,-405l-368,-1259l-1111,-1669l34,-210l-21,-570l-259,-194l-894,-1841l-1259,-1226l-547,-491l242,-825l-1007,-1697l-42,-143l-887,-713l-227,-556l-647,-119l-652,204l-612,-641l-537,-1016l-507,-700l79,-627l1041,255l104,-732l1042,-533l551,-489l597,223l1088,-391l493,585l441,-109l1074,632l762,785l666,872l676,689l928,8l943,244l1431,667l1223,566l826,-195l170,-1045l-767,-606l-1004,-952l-548,-827l76,-461l-835,-956l-200,-1773l1704,210l504,-432l293,-924l824,262l768,443l401,199l317,246l445,-737l489,264l752,258l1048,-1053l-298,-781l1051,-137l870,534l77,340l165,-13l102,1086l128,1229l825,-187l-433,1087l-467,413l238,928Z" /></g></svg>