<?xml version="1.0" encoding="UTF-8"?>
<!DOCTYPE svg PUBLIC "-//W3C//DTD SVG 1.1//EN" "http://www.w3.org/Graphics/SVG/1.1/DTD/svg11.dtd">
<!-- Creator: CorelDRAW -->
<svg xmlns="http://www.w3.org/2000/svg" xml:space="preserve" width="297mm" height="210mm" version="1.1" style="shape-rendering:geometricPrecision; text-rendering:geometricPrecision; image-rendering:optimizeQuality; fill-rule:evenodd; clip-rule:evenodd"
viewBox="0 0 29700 21000"
 xmlns:xlink="http://www.w3.org/1999/xlink"
 xmlns:xodm="http://www.corel.com/coreldraw/odm/2003">
 <defs>
  <style type="text/css">
   <![CDATA[
    .fil10 {fill:#00CF00;fill-rule:nonzero}
    .fil9 {fill:#088408;fill-rule:nonzero}
    .fil8 {fill:#08AF08;fill-rule:nonzero}
    .fil1 {fill:#183EFF;fill-rule:nonzero}
    .fil4 {fill:#3C3C3C;fill-rule:nonzero}
    .fil6 {fill:#F1443E;fill-rule:nonzero}
    .fil5 {fill:red;fill-rule:nonzero}
    .fil3 {fill:#FF7D00;fill-rule:nonzero}
    .fil7 {fill:#FFCF00;fill-rule:nonzero}
    .fil2 {fill:#FFD002;fill-rule:nonzero}
    .fil0 {fill:white;fill-rule:nonzero}
   ]]>
  </style>
 </defs>
 <g id="Camada_x0020_1">
  <metadata id="CorelCorpID_0Corel-Layer"/>
  <g id="_2114970238288">
   <path class="fil0" d="M13384.55 14999.59c6.43,-8.93 9.84,-19.59 9.84,-30.51 0,-15.37 -6.78,-29.99 -18.5,-39.92 -165.29,-144.04 -362.32,-260.49 -591.09,-349.35 -459.02,-178.12 -724.94,-452.78 -693.8,-980.32 1.2,-20.9 -13.77,-38.63 -34.23,-41.22l-22.45 -3.62c-27.8,-4.07 -49.79,-26.69 -52.85,-54.92 -34.53,-326.68 -58.42,-597.57 -71.72,-812.64 -22.41,-357.5 -63.11,-626.76 -122.08,-807.8 -370.55,-1141.61 -1435.57,-1859.09 -2575.93,-2109.45 -974.71,-214.26 -1519.67,-277.77 -2156.17,-660.8 -138.27,-83.47 -255.14,-196.39 -350.64,-338.82 -11.33,-17 -28.93,-30.53 -49.46,-37.64 -235.25,-76.62 -458.97,-248.22 -671.13,-514.78 -581.73,-728.07 -562.4,-1596.88 -191.84,-2417.13 165.05,-363.73 389.88,-764.18 688.21,-1049.43 16.11,-15.66 23.05,-37.48 19.19,-58.83 -65.28,-388.98 120.94,-638.71 369.45,-928.95 21.37,-25.05 37.45,-52.21 48.77,-81.52 133.7,-340.75 207.19,-697.61 309.33,-978.5 303.52,-833.32 912.86,-1189.99 1827.97,-1070.01 137.42,17.87 320.53,49.41 549.31,94.68 274.66,54.8 415.42,29.28 613.46,-160.68 376.82,-360.62 562.4,-563.04 894.35,-748.62 395.51,-221.1 865.09,-232.95 1270.53,-26.15 359.99,183.72 561.16,430.34 909.33,816.5 75.13,83.45 224.82,168.99 449.03,256.58 34.46,13.21 70.9,18.67 106.97,16.15 274.98,-19.89 528.92,15.63 761.84,106.56 26.75,10.36 54.19,12.2 80.06,5.79 682.26,-150.91 1480.72,-56.87 2160.2,123.75 1089.52,290.24 1964.36,886.25 2624.54,1788.09 110.85,151.34 199.92,331.34 297.7,486.42 10.71,17.7 33.47,24.5 52.75,15.65 371.31,-177.77 694.41,-291.56 969.28,-341.39 892.49,-161.93 1659.17,270.3 1743.86,1231.93 1.72,19.68 12.92,37.71 29.97,47.64 731.1,428.18 1501.52,1183.65 1591.21,2081.11 81.58,814.01 -214.87,1826.72 -963.49,2247.11 -22.79,13.18 -39.74,34.32 -47.29,59.11 -46.54,155.73 -144.11,298.59 -292.76,428.55 -265.31,231.68 -501.36,515.68 -568.64,779.13 -32.39,125.39 -29.26,328.63 9.35,609.74 5.48,36.27 6.82,68.1 5.25,99.97 -0.17,-1.88 -15.63,193.78 -46.35,586.98 -19.94,260.34 -45.27,456.94 -75.99,589.82 -265.94,1153.43 -1174.61,1912.64 -2243.97,2364.17 -17.45,7.48 -322.42,139.3 -914.93,395.48 -568.62,245.4 -761.68,526.91 -997.1,1156.58 -103.81,276.94 -219.65,553.67 -347.53,830.19 -412.32,893.12 -1090.75,1480.01 -2035.35,1760.69 -348.15,103.38 -663.29,198.67 -1001.48,126.43 -591.05,-127.04 -845.77,-575.47 -952.9,-1132.88 -11.79,-57.69 -48.42,-104.49 -99.38,-128.83 -663.57,-334.54 -1393.5,-738.12 -1311.91,-1622.51 36.74,-396.74 265.94,-669.53 595.4,-990.28 206.37,-200.95 377.64,-396.73 513.81,-587.3zm-911.79 -11597.37l289.63 487.67c-472.11,1583.81 -1667.27,2775.23 -3254.19,3183.8 -1106.75,284.62 -2374.15,141.99 -3368.78,-449.67 -2.76,-1.67 -6.05,-3.27 -9.46,-4.49 -28.77,-10.48 -60.67,4.61 -71.26,33.68 -1.2,3.34 -2.12,6.8 -2.68,10.29 -66.9,445.36 26.29,834.32 279.57,1166.91 13.45,17.51 31.38,30.89 51.72,38.61 1558.87,578.59 3213.68,468.97 4673.54,-330.1 1132.69,-620.3 1968.1,-1568.84 2506.2,-2845.61l338.19 208.01c-521.09,1238.99 -1327.85,2190.43 -2420.24,2854.35 -1295.86,787.65 -2728.13,1038.44 -4296.76,752.34 -0.66,-0.09 -1.37,-0.14 -2.05,-0.14 -8.27,0 -14.95,6.69 -14.95,14.95 0,3.74 1.41,7.34 3.93,10.1 161.29,170.66 428.46,285.88 615.93,354.41 596.65,217.36 1296.07,290.85 1895.22,470.83 753.19,226.71 1392.4,615.55 1917.63,1166.54 13.63,14.87 36.13,18.31 54.07,8.12l1661.14 -959.79c16.81,-9.47 37.97,-8.64 54.52,2.28l611.27 424.34 831.45 587.31c7.42,5.2 16.24,8.02 25.31,8.02 7.03,0 13.96,-1.71 20.19,-4.96l2840 -1542.01 4008.38 2826.92c3.35,2.22 7.25,3.42 11.26,3.42 10.89,0 19.77,-8.76 19.93,-19.66l-0.04 -863.16c0.09,-21.63 2.66,-42.4 7.69,-62.59 68.79,-285.86 206.98,-557.72 414.58,-815.57 3.65,-4.4 5.62,-9.88 5.62,-15.56 0,-10.52 -6.78,-19.87 -16.8,-23.11 -1335.34,-419.1 -2359.86,-1413.73 -2803.93,-2733.46 -275.27,-818.36 -282.55,-1703.18 -21.8,-2654.43 1.25,-4.85 0.82,-9.91 -1.2,-14.31 -233.79,-470.01 -552.89,-872.77 -957.3,-1208.25l-296.45 -241.04 -317.64 -199.92 -338.8 -173.77 -304.55 -123.3c-149.48,-70.59 -266.99,-105.05 -352.53,-103.4 -102.13,-49.81 -195.56,-72.86 -280.26,-69.12l-389.24 -78.48c-88.04,-37.78 -182.29,-48.16 -282.78,-31.14l-757.33 -0.63c-85.54,-17.45 -163.17,-2.48 -232.92,44.84l-220.49 43.62c-14.97,3.22 -31.69,0.59 -45.88,-7.65l-114.8 -69.59c-220.89,-72.66 -463.37,-99.24 -727.44,-79.72 -23.63,1.48 -45.38,-2.29 -65.32,-10.74l-340.75 -136.88 -342.55 -231.67 -475.21 -516.31 -245.37 -183.73c-314.72,-215.08 -636.93,-210.11 -966.62,14.95 -310.77,211.76 -622.19,561.77 -984.65,835.81 -3.11,2.07 -5.01,5.6 -5.01,9.37 0,6.19 5.01,11.2 11.2,11.2 0.24,0 0.45,0 0.69,-0.02 1.22,0 10.35,-3.11 27.37,-9.34 0.66,-0.22 1.2,-0.38 1.72,-0.52 14.62,-3.93 29.59,4.49 33.4,18.78 0.17,0.59 0.31,1.2 0.43,1.81 101.69,487.36 56.63,936.14 -135.19,1346.38 -543.1,1159.05 -1994.25,1540.2 -3053.02,779.76 -9.65,-6.92 -15.4,-18.07 -15.4,-29.94 0,-7.58 2.36,-14.97 6.69,-21.14l175.62 -249.75c8.62,-12.43 22.79,-19.84 37.9,-19.84 8.88,0 17.56,2.56 25.02,7.39 555.13,356.67 1102.35,414.38 1641.71,173.13 736.78,-329.46 1091.8,-1077.46 941.69,-1873.4 -4.03,-19.98 -20.77,-34.95 -41.08,-36.74 -109.65,-10.6 -221.74,5.6 -343.82,-18.69 -301.44,-59.79 -456.94,-89.9 -466.47,-90.32 -46.92,-2.07 -96.14,4.38 -147.62,19.32 72.24,-6.64 147.4,1.65 225.46,24.91 37.95,12 66.8,39.59 79.68,75.09 217.41,575.75 -37.33,1178 -627.74,1351.15 -345.68,101.5 -788.5,6.85 -1025.16,-289.62 -13.8,-16.88 -20.41,-38.63 -18.08,-60.12 4.99,-54.17 13.51,-116.33 25.56,-186.51 -0.85,3.32 -2.09,7.47 -3.74,12.46 -135.35,431.4 -222.75,701.7 -262.21,810.9 -2.23,6.83 -5.74,14.38 -9.81,21.45l-109.77 185.93c-9.95,17.16 -23.06,31.33 -38.72,42.28 -183.04,131.68 -247.35,314.39 -192.97,548.16 4,17.09 11.58,32.41 22.31,45.43l74.86 90.96c0.09,0.09 0.42,0.49 0.7,0.87 13.77,17.6 10.88,42.89 -6.47,56.42 -0.45,0.35 -0.92,0.71 -1.39,1.04 -240.1,169.62 -366.53,243.11 -468.67,446.16 62.9,-62.92 112.73,-138.27 170.03,-199.92 17.79,-19.8 47.85,-24.53 71.75,-10.92 2372.14,1398.54 5169.81,-958.8 4165.84,-3519.81 -4.71,-12.17 -7.16,-25.16 -7.16,-38.25 0,-27.92 11.11,-54.73 30.86,-74.45l180.6 -180.01c12.9,-13.09 30.48,-20.46 48.84,-20.46 27.68,0 52.66,16.67 63.27,42.26 366.63,866.53 375.34,1728.7 26.13,2586.52 -458.38,1126.05 -1533.96,1899.57 -2753.44,2001.1 -686.33,57.29 -1342.98,-96.75 -1969.95,-462.13 -13.37,-7.83 -23.61,-21.13 -27.8,-36.62 -3.46,-12.55 -5.6,-19.42 -6.45,-20.67 -4.87,-8.95 -14.29,-14.5 -24.51,-14.5 -9.44,0 -18.24,4.75 -23.42,12.62 -191.02,274.44 -335.1,556.18 -432.25,845.15 -4.57,13.3 -5.39,23.87 -2.49,31.78 0.73,1.98 2.61,3.29 4.7,3.29 1.6,0 3.11,-0.77 4.03,-2.04l31.12 -44.23c10.4,-14.24 29.3,-18.36 43.92,-9.8 949.36,543.81 1926.86,714.19 2932.5,511.16 1694.03,-341.93 2965.2,-1637.37 3300.26,-3342.63zm-4355.92 -1121.67c-178.76,118.95 -401.09,343.79 -305.8,582.32 148.84,373.07 561.76,529.4 898.7,304.55 336.95,-225.46 350.03,-667.03 61.68,-947.29 -184.36,-178.74 -476.46,-59.16 -654.58,60.42zm2047.16 -73.49c-46.09,-4.16 -71.6,-3.95 -76.6,0.61 -4.51,4.24 -7.08,10.17 -7.08,16.39 0,11.27 8.38,20.81 19.58,22.24 15.33,2.07 37.95,-3.13 67.84,-15.58 4.43,-2.05 7.25,-6.45 7.25,-11.3 0,-6.28 -4.7,-11.6 -10.94,-12.36l-0.05 0zm-2414.94 576.9c0.19,0.07 0.19,0.07 0.19,0.07 -8.95,-3.62 -23.92,12.6 -33.45,36.18 0,0 0,0 0,0 0,0 0,0 0,0 -9.54,23.61 -10.03,45.67 -1.11,49.27 0,0 0.02,0 0.02,0 -0.02,0 -0.02,0 -0.02,0 8.95,3.63 23.92,-12.59 33.45,-36.18 0,0 0,0 0,0 0,0 0,0 0,0 9.53,-23.61 10.03,-45.66 1.11,-49.27 0,0 -0.03,0 -0.03,0l-0.16 -0.07zm-77.54 266.37c19.11,-48.16 28.04,-77.02 26.79,-86.57 -1.25,-9.61 -9.44,-16.81 -19.14,-16.81 -6.24,0 -12.1,3.01 -15.72,8.1 -16.62,23.65 -22.44,54.18 -17.47,91.54 0.45,2.4 1.41,4.57 2.85,6.38 4.66,5.98 13.04,7.2 18.74,2.76 1.83,-1.44 3.22,-3.35 4.04,-5.51l-0.09 0.11zm15904.09 5339.35c0.82,-1.76 1.22,-3.67 1.22,-5.6 0,-7.56 -6.09,-13.68 -13.65,-13.7 -971.19,9.13 -1692.62,-357.92 -2164.3,-1101.12 -528.13,-832.07 -500.73,-1857.84 107.13,-2691.18 0.68,-0.92 1.18,-1.93 1.53,-3.01 1.91,-5.89 -1.06,-12.12 -6.61,-13.94 -1.16,-0.37 -2.38,-0.54 -3.61,-0.47l-578 0c-6.12,0 -11.68,3.39 -14.29,8.71 -251.21,444.28 -378.91,903.09 -383.06,1376.42 -7.88,878.98 315.97,1613.9 971.59,2204.73 496.16,448.03 1106.32,690.93 1830.44,728.71 0.33,0.02 0.63,0.02 0.94,0.02 8.07,0 15.46,-4.59 19.02,-11.86l231.65 -477.71zm-2801.39 -3769.23c14.1,0.4 25.12,-3.13 33,-10.59 4.15,-3.88 6.5,-9.3 6.5,-14.97 0,-10.97 -8.62,-19.99 -19.54,-20.53 -23.28,-0.84 -36.15,0 -38.65,2.47 -4.26,4.81 -6.64,11.04 -6.64,17.47 0,14.12 11.23,25.71 25.35,26.13l-0.02 0.02zm-145.76 14.31c-26.57,-0.42 -45.45,3.32 -56.65,11.21 -3.98,2.52 -6.43,6.9 -6.43,11.63 0,7.55 6.14,13.7 13.7,13.7 1.13,0 2.24,-0.14 3.32,-0.4 29.89,-4.57 47.1,-8.1 51.67,-10.6 4.28,-2.44 6.92,-6.96 6.92,-11.88 0,-7.09 -5.42,-13.02 -12.5,-13.66l-0.03 0zm964.74 21.19l172.52 94.04c23.37,12.78 37.9,37.29 37.9,63.91 0,15.53 -4.99,30.72 -14.2,43.22 -743.67,1005.19 -330.75,2377.89 747.96,2921.6 296.46,149.47 636.53,214.44 1020.17,194.93 70.17,-3.63 125.21,-61.6 125.21,-131.85 0,-0.04 0,-0.11 0,-0.18l-0.02 -240.41c0.02,0 0.02,-0.05 0.02,-0.07 0,-68.43 -55.51,-123.94 -123.94,-123.94 -4.35,0 -8.75,0.24 -13.06,0.71 -1023.32,105.24 -1760.1,-739.3 -1624.33,-1750.12 3.37,-21 8.8,-39.6 16.38,-57.32 152.68,-356.22 98.63,-668.05 -162.11,-935.43 -6.92,-7.22 -14.57,-12.9 -22.81,-16.95l-153.45 -78.97c-4.15,-2.54 -9.7,-1.48 -13.04,2.47l-0.05 0.66c-0.12,0.8 -0.21,1.62 -0.21,2.45 0,4.8 2.75,9.18 7.08,11.25l-0.02 0zm1147.23 4522.23c-184.36,-4.99 -416.45,-72.67 -696.31,-203.05 -1603.73,-746.74 -2314.36,-2531.09 -1687.82,-4184.65 7.89,-19.47 21.47,-34.91 38.94,-44.78l58.23 -33.7c1.16,-0.83 1.84,-2.15 1.84,-3.56 0,-1.67 -0.94,-3.18 -2.45,-3.91 -6.24,-2.49 -12.05,-2.7 -17.46,-0.63 -254.94,97.57 -513,216.73 -774.14,357.49 -17.73,9.46 -30.3,26.39 -34.25,46.11 -108.8,502.38 -130.6,978.41 -65.42,1428.09 228.57,1565.12 1382.02,2863.06 2931.59,3226.15 20.38,4.5 40.7,-1.2 54.87,-15.02 100.2,-91.47 194.24,-295.77 113.9,-432.16 -13.7,-22.83 -21.58,-40.06 -23.68,-51.69 -0.35,-2.26 -0.56,-4.56 -0.56,-6.87 0,-20.83 16.52,-37.92 37.36,-38.58 49.8,-1.25 76.36,-3.75 79.68,-7.49 2.96,-3.48 4.59,-7.88 4.59,-12.45 0,-10.5 -8.41,-19.07 -18.88,-19.3l-0.03 0zm-3357.57 -4359.69c-1.67,-10.78 -5.41,-17.02 -11.23,-18.67 -0.49,-0.26 -1.15,-0.42 -1.81,-0.45 -3.08,-0.09 -5.7,2.59 -5.82,6.05 -0.02,0.59 0.05,1.2 0.17,1.79 1.67,6.29 5.18,11.7 10.59,16.27 0.92,0.8 2.07,1.22 3.27,1.22 2.76,0 4.99,-2.23 4.99,-4.99 0,-0.4 -0.04,-0.82 -0.14,-1.22l-0.02 0zm42.96 98.42l-3.11 84.08c-0.16,2.99 0.47,6.02 1.91,8.71 4.35,8.19 14.78,11.18 23.28,6.64 2.66,-1.42 4.94,-3.46 6.57,-5.96 6.23,-10 0.84,-41.78 -16.2,-95.36 -0.42,-3.08 -3.06,-5.36 -6.19,-5.36 -3.48,0 -6.31,2.82 -6.31,6.3 0,0.31 0.03,0.64 0.07,0.95l-0.02 0zm75.98 252.86c6.24,-0.83 13.09,-4.78 20.55,-11.84 0.1,-0.05 0.12,-0.05 0.12,-0.05 4.54,-4.12 4.78,-11.32 0.5,-16.2 -7.47,-9.11 -14.53,-12.61 -21.17,-10.54 -4.3,1.34 -8.35,4.14 -11.41,7.93 -7.37,9.09 -7.25,21.37 0.23,27.42 3.02,2.48 6.97,3.63 11.21,3.28l-0.03 0zm3126.52 836.42c-163.6,-159.01 -352.32,-268.21 -566.15,-327.6 -0.07,-0.02 -0.12,-0.02 -0.14,-0.05 -5.01,-1.15 -9.96,1.7 -11.06,6.36l-0.61 0.54c-0.19,1.08 -0.31,2.19 -0.31,3.27 0,7.77 5.72,14.34 13.42,15.42 73.89,10.81 146.74,41.95 218.56,93.43 16.78,12.17 26.69,31.64 26.69,52.35 0,5.01 -0.59,10.03 -1.74,14.9 -30.34,122.5 -22.88,259.71 22.39,411.68 126.64,426.01 404.21,693.4 832.7,802.19 118.94,29.9 288.99,-3.13 383.64,35.5 2.69,1.01 5.53,1.56 8.38,1.56 12.74,0 23.05,-10.32 23.05,-23.05 0,-3.81 -0.94,-7.56 -2.76,-10.9l-148.86 -274.04c-16.31,-29.12 -45.5,-48.14 -78.2,-51.11 -369.3,-35.26 -602.32,-235.58 -699.07,-600.98 -6.23,-24.48 -6.45,-54.37 -0.63,-89.68 3.91,-22.15 -3.44,-44.54 -19.52,-60.03l0.22 0.24zm59.93 26.29c-6.52,6.54 135.07,158.8 316.22,339.98 181.16,181.18 333.39,322.79 339.96,316.23 6.54,-6.57 -135.05,-158.82 -316.2,-340.01 -181.14,-181.18 -333.37,-322.79 -339.94,-316.22l-0.04 0.02zm-16573.76 342.43c-18.69,27.82 -22.41,70.57 -11.2,128.29 0.63,2.14 2.58,3.6 4.8,3.6 1.97,0 3.76,-1.18 4.56,-2.97l40.47 -108.37c1.53,-4.74 1.48,-9.61 0.02,-14.13 -3.84,-11.79 -16.22,-18.31 -27.68,-14.59 -4.5,1.46 -8.4,4.4 -11.09,8.38l0.12 -0.21zm17523.4 919.25c0.83,-22.01 -5.6,-52.51 -19.3,-91.54 -4.07,-10.52 -14.22,-17.47 -25.52,-17.47 -14.9,0 -27.07,11.91 -27.4,26.81 0.4,51.91 2.26,82.41 5.58,91.55 4.76,13.86 17.8,23.21 32.46,23.21 18.27,0 33.31,-14.34 34.21,-32.56l-0.03 0zm-17061.89 814.02c56.05,44.01 118.76,81.37 188.08,112.11 0.47,0.17 0.92,0.26 1.39,0.26 2.07,0 3.74,-1.67 3.74,-3.74 0,-0.31 -0.05,-0.59 -0.09,-0.87 -1.7,-5.82 -5.65,-10.38 -11.89,-13.73 -61.04,-34.03 -117.08,-70.99 -168.14,-110.84 -50.66,-40.28 -99.67,-85.94 -147,-137.02 -4.57,-5.39 -9.96,-8.31 -16.17,-8.71 -0.1,-0.03 -0.22,-0.03 -0.33,-0.03 -2.08,0 -3.75,1.67 -3.75,3.75 0,0.91 0.36,1.81 0.97,2.51 46.06,60.19 97.14,112.31 153.19,156.31zm17041.34 110.23c8.31,-21.59 12.46,-54.16 12.46,-97.78 -0.26,-9.77 -8.27,-17.54 -18.04,-17.54 -6.87,0 -13.15,3.91 -16.19,10.08 -13.72,31.96 -15.61,66.64 -5.63,103.99 1.63,6.38 7.35,10.85 13.91,10.85 6.08,0 11.52,-3.83 13.54,-9.58l-0.05 -0.02zm-16769.79 39.24c3.32,4.17 8.31,8.73 14.95,13.7 1.76,1.32 3.74,2.07 5.81,2.31 6.15,0.63 11.63,-3.56 12.24,-9.37 0.24,-2.12 -0.21,-4.24 -1.29,-6.1 -5.77,-13.65 -11.79,-21.09 -18.01,-22.34 -0.92,-0.21 -1.88,-0.3 -2.85,-0.3 -7.55,0 -13.7,6.14 -13.7,13.7 0,3.03 1.01,6 2.87,8.4l-0.02 0zm137.02 14.95c4.64,-0.61 8.1,-4.57 8.1,-9.25 0,-3.96 -2.49,-7.49 -6.21,-8.81 -11.23,-4.99 -19.97,-6.42 -26.18,-4.35 -5.39,2.19 -8.92,7.44 -8.92,13.27 0,6.08 3.84,11.49 9.56,13.52 0.82,0 8.71,-1.46 23.65,-4.38zm15950.18 944.18c13.28,5.82 32.18,0.21 56.66,-16.81 103.81,-73.08 188.93,-147.19 255.35,-222.35 1.86,-2.05 2.88,-4.71 2.88,-7.46 0,-3.06 -1.25,-6 -3.46,-8.1l-0.66 0c-0.22,-0.16 -0.33,-0.26 -0.45,-0.35 -7.7,-5.79 -18.48,-4.5 -24.06,2.92 -0.16,0.21 -0.33,0.45 -0.47,0.68 -81.75,119.49 -176.19,192.93 -283.32,220.33 -2.16,0.61 -4.4,1.79 -6.31,3.39 -7.11,5.95 -8.21,16.36 -2.47,23.21 1.65,1.95 3.74,3.48 6.1,4.45l0.21 0.09zm-10426.47 3896.93c-86.58,-53.57 -56.68,-160.07 24.9,-186.85 2528.62,-822.11 5222.9,-122.05 7047.72,1799.32 7.18,7.27 11.18,17.11 11.18,27.35 0,16.36 -10.17,31.02 -25.5,36.74l-192.45 74.79c-4.26,1.5 -7.14,5.46 -7.47,10.07l0.62 -0.11c1.31,3.74 4.87,6.28 8.87,6.28 1.25,0 2.47,-0.26 3.6,-0.73 1066.24,-437.17 2159.26,-1100.46 2325.57,-2318.67 14.94,-109.62 29.89,-232.09 44.84,-367.47 2.16,-21.94 -7.65,-42.65 -25.47,-54.63l-4017.19 -2828.34c-14.17,-9.56 -32.23,-10.48 -46.75,-2.45l-5278.29 2869.23c-4.26,2.3 -6.85,6.85 -6.85,11.86 1.25,179.77 17.02,326.75 47.34,440.94 1.55,5.27 2.09,10.12 2.02,15.06l23.52 465.12c0.68,13.88 12.19,24.85 26.15,24.85 0,0 0.03,0 0.03,0l27.37 0.05c0.38,0 0.71,0.02 1.06,0.02 6.55,0 11.84,-5.29 11.84,-11.84 0,-4.52 -2.59,-8.66 -6.64,-10.64l-0.02 0.05zm9983.79 -3314.1c1.01,1.18 1.01,1.18 1.01,1.18 -4.54,-5.62 -70.66,40.37 -147.64,102.7 0,0 0,0 0,0 -76.97,62.34 -135.7,117.44 -131.16,123.04 0,0 0,0 0,0 4.55,5.63 70.67,-40.37 147.64,-102.7 0,0 0,0 0,0 76.98,-62.33 135.71,-117.44 131.16,-123.04l-1.01 -1.18zm-9881.65 2016.17l198.67 -109.62 480.81 -259.1 381.15 -209.27 416.03 -229.81 363.12 -196.81c56.87,-21.59 105.88,-49.41 146.98,-83.45 6.03,-5.13 9.51,-12.62 9.51,-20.5 0,-8.71 -4.24,-16.88 -11.37,-21.89l-1225.08 -862.55c-18.01,-12.83 -42.53,-14.01 -62.42,-2.8l-1527 881.59c-5.39,3.11 -11.56,4.78 -17.84,4.78 -11.44,0 -22.18,-5.51 -28.84,-14.78 -12.9,-18.25 -26.38,-39.83 -40.51,-64.74 -2.49,-3.74 -3.32,-2.92 -2.49,2.5 0.42,4.56 0,9.74 -1.25,15.56 -0.31,1.03 -0.47,2.19 -0.47,3.32 0,2.89 1.06,5.69 2.99,7.86 262.39,306.86 460.24,673.5 593.52,1099.92 23.65,76.81 37.35,144.48 41.1,203.03 0.16,1.57 0.44,2.94 0.87,4.26 3.08,9.48 13.02,14.75 22.17,11.77 1.41,-0.45 2.73,-1.09 3.98,-1.89l256.37 -157.38zm9104.85 160.68c-0.89,-1.63 -2.11,-2.97 -3.6,-3.96 -5.13,-3.46 -11.96,-2.33 -15.23,2.52 -1.03,1.53 -1.62,3.32 -1.72,5.18 -2.89,25.73 8.93,55.01 35.5,87.8 2.97,3.32 7.25,5.27 11.75,5.27 8.59,0 15.56,-6.96 15.56,-15.55 0,-2.5 -0.62,-4.97 -1.77,-7.21l-40.49 -74.05zm-9076.21 1208.25c0,3.32 40.68,9.95 122.08,19.93 16.69,1.84 29.28,15.96 29.28,32.75 0,7.27 -2.42,14.36 -6.85,20.12 -118.75,150.77 -176.47,313.33 -173.15,487.74 4.35,229.18 183.11,303.3 370.55,370.55 165.06,59.79 317.64,155.08 464.62,231.06 7.42,3.68 15.56,5.61 23.82,5.61 10.36,0 20.51,-3.06 29.17,-8.76 31.52,-20.74 55.6,-32.55 72.22,-35.45 1651.07,-317.64 3286.55,86.58 4530.93,1227.55 6.34,5.67 14.55,8.85 23.05,8.85 9.13,0 17.89,-3.65 24.31,-10.12 269.04,-269.64 743.61,-460.85 1092.39,-587.28 3.77,-1.44 6.73,-2.92 9.49,-4.71 20.76,-13.46 26.5,-41.48 12.85,-62.54 -1.74,-2.66 -3.76,-5.16 -6,-7.4 -1048.91,-1069.62 -2313.07,-1703.68 -3792.44,-1902.16 -811.73,-109.2 -1595.23,-62.9 -2350.49,138.91 -253.29,67.67 -392.99,86.15 -419.14,55.41 -6.15,-7.02 -15,-11.04 -24.32,-11.04 -17.32,0 -31.59,13.63 -32.37,30.93l0 0.05zm4744.56 3774.24c18.69,-43.6 36.96,-82.22 54.82,-115.86 35.29,-66.43 54.19,-104 56.66,-112.73 94.25,-337.98 249.97,-667.86 467.12,-989.64 40.27,-60.61 77.86,-99.03 112.73,-115.22 1.1,-0.57 1.78,-1.65 1.78,-2.85 0,-1.2 -0.68,-2.29 -1.74,-2.8 -4.19,-2.88 -9.39,-2.24 -15.6,1.93 -51.08,34.86 -89.48,78.05 -115.23,129.53 -0.85,1.65 -1.81,3.3 -2.87,4.85 -14.62,21.68 -43.81,27.57 -65.2,13.14 -1.65,-1.13 -3.25,-2.36 -4.78,-3.7 -1150.96,-1002.28 -2492.72,-1395.27 -4025.25,-1178.94 -22.95,3.15 -45.92,-1.11 -65.69,-12.08 -87.83,-49.24 -150.42,-96.08 -187.78,-140.5 -2.11,-2.45 -5.17,-3.82 -8.38,-3.82 -6.19,0 -11.2,5.02 -11.2,11.21 0,0.85 0.09,1.69 0.28,2.52 0.4,2.09 8.29,8.35 23.66,18.73 126.43,85.31 198.67,151.34 303.3,264.68 57.72,63.11 136.6,104.02 236.67,122.71 6.63,1.37 11.34,7.2 11.34,13.96 0,3.3 -1.13,6.5 -3.22,9.04 -166.1,187.28 -364.16,433.31 -594.18,738.07 -54.4,71.82 -250.37,273.84 -587.94,606 -16.29,15.91 -32.98,37.57 -46.52,60.92 -36.93,67.37 -88.62,155.19 -84.27,162.04 1.18,1.63 3.11,2.62 5.14,2.62 2.3,0 4.4,-1.28 5.48,-3.3 83.45,-160.23 206.96,-310.53 370.53,-450.85 101.31,-87.61 243.33,-154.04 426.02,-199.3 1276.34,-316.82 2409.64,-69.96 3399.92,740.52 89.68,73.49 199.92,183.72 330.7,330.7 1.62,1.84 2.33,4.33 1.91,6.71l-13.11 84.22c-0.15,0.73 -0.22,1.56 -0.22,2.36 0,7.22 5.87,13.09 13.09,13.09 5.27,0 10.03,-3.16 12.05,-8.01l-0.02 0.05zm-3897.54 613.46c388.63,211.12 667.67,323.85 706.27,748 1.08,10.43 9.94,18.39 20.46,18.39 2.14,0 4.28,-0.33 6.33,-1.01 581.28,-190.13 1037.19,-38.14 1367.68,455.95 12.17,18.13 35.54,25.66 56.54,18.06 257.1,-97.15 494.23,-219.86 711.38,-368.09 118.97,-81.58 194.95,-181.23 321.38,-287.72 249.76,-210.51 460.24,-595.42 587.92,-887.52 5.77,-12.43 3.79,-26.98 -5.01,-37.52 -465.82,-572.83 -1109.2,-989.48 -1840.99,-1158.89 -893.1,-207.19 -1752.8,-60.21 -2579.06,440.94 -23.91,14.26 -42.58,37.8 -51.31,65.41 -113.11,361.21 221.97,736.15 530.24,895.6 17.47,9.11 38.21,7.84 53.74,-3.27 313.78,-212.49 616,-336.59 906.64,-372.3 982.39,-120.82 1749.49,225.46 2301.3,1038.86 8.28,12.27 12.71,26.79 12.71,41.62 0,19.89 -7.93,38.98 -22.03,52.99l-140.79 140.81c-12.24,12.31 -28.98,19.28 -46.4,19.28 -22.71,0 -43.83,-11.82 -55.71,-31.17 -559.3,-906.76 -1623.7,-1216.3 -2577.2,-740.47 -43.41,21.44 -120.97,9.72 -201.22,-32.28 -24.88,-12.52 -43.97,-21.7 -57.27,-27.51 -0.28,-0.1 -0.61,-0.12 -0.94,-0.12 -3.79,0 -6.85,3.06 -6.85,6.85 0,1.93 0.8,3.76 2.21,5.06l-0.02 0.05zm3833.4 -489.53c-7.07,9.96 -11,20.55 -11.82,31.76 -0.02,0.47 -0.05,0.99 -0.05,1.5 0,10.67 8.64,19.31 19.3,19.31 5.82,0 11.35,-2.64 15,-7.16 7.88,-9.51 11.2,-21.54 9.96,-36.06 -0.19,-3.01 -1.04,-5.67 -2.41,-8.08 -4.99,-8.61 -15.79,-11.72 -24.15,-6.89 -2.4,1.39 -4.45,3.36 -5.93,5.74l0.1 -0.12zm-3071.69 1382.02c1.24,53.97 4.77,82.83 10.59,86.58 3.34,1.97 7.16,3.06 11.06,3.06 11.7,0 21.19,-9.49 21.19,-21.19 0,-1.46 -0.17,-2.92 -0.45,-4.35 -10.83,-46.89 -16.67,-70.95 -17.49,-72.2 -2.54,-3.72 -6.71,-5.88 -11.18,-5.88 -7.56,0 -13.7,6.14 -13.7,13.7 0,0.07 0,0.14 0,0.21l-0.02 0.07zm1013.93 427.24c-225.46,-275.27 -520.27,-362.88 -884.4,-262.82 -9.13,2.5 -23.47,2.07 -42.98,-1.25 -1.13,-0.23 -2.31,-0.33 -3.48,-0.33 -12.03,0 -21.8,9.77 -21.8,21.8 0,3.81 1.01,7.58 2.89,10.88 107.53,185.2 270.28,294.64 488.26,328.25 113.36,17.44 200.98,9.13 262.84,-24.9 58.54,-31.76 156.93,-6.24 186.22,-19.31 12.31,-5.39 20.24,-17.48 20.24,-30.88 0,-7.84 -2.75,-15.44 -7.74,-21.49l-0.05 0.05zm168.77 -21.8c24.91,7.06 43.6,7.89 56.05,2.49 6.33,-3.03 10.36,-9.39 10.36,-16.35 0,-9.14 -6.85,-16.86 -15.91,-17.94 -27.03,-2.05 -44.68,-1.41 -52.99,1.9 -2.38,0.97 -4.38,2.43 -5.93,4.29 -5.53,6.57 -4.45,16.57 2.4,22.31 1.81,1.53 3.93,2.66 6.21,3.3l-0.19 0z"/>
   <path class="fil1" d="M12237.98 1299.62c-148.23,727.04 -69.96,1427.9 234.78,2102.6 -335.06,1705.26 -1606.23,3000.7 -3300.26,3342.63 -1005.64,203.03 -1983.23,32.6 -2932.83,-511.32 -14.29,-8.4 -33.19,-4.28 -43.36,9.7l-31.38 44.49c-0.89,1.27 -2.4,2.04 -4,2.04 -2.09,0 -3.97,-1.31 -4.7,-3.29 -2.9,-7.89 -2.08,-18.48 2.49,-31.78 97.15,-288.99 241.23,-570.69 432.23,-845.15 5.2,-7.87 14,-12.62 23.44,-12.62 10.22,0 19.64,5.55 24.56,14.5 0.8,1.25 2.87,7.89 6.19,19.91 4.4,16.25 14.64,29.55 28.69,37.78 626.52,365.12 1282.94,519.02 1969.27,461.73 1219.48,-101.53 2295.06,-875.05 2753.44,-2001.1 349.21,-857.82 340.47,-1719.99 -26.15,-2586.52 -10.59,-25.59 -35.57,-42.26 -63.25,-42.26 -18.36,0 -35.94,7.37 -48.82,20.46l-180.64 179.98c-19.73,19.75 -30.84,46.56 -30.84,74.48 0,13.09 2.45,26.08 7.21,38.28 1003.92,2560.98 -1793.75,4918.32 -4165.4,3520.11 -24.39,-13.94 -54.45,-9.21 -72.64,11.01 -56.9,61.23 -106.73,136.58 -169.63,199.5 102.14,-203.05 228.57,-276.54 468.34,-445.95 0.8,-0.54 1.27,-0.9 1.72,-1.25 17.35,-13.53 20.24,-38.82 6.47,-56.42 -0.28,-0.38 -0.61,-0.78 -0.91,-1.13l-75.17 -91.29c-10.21,-12.43 -17.79,-27.75 -21.58,-44.11 -54.52,-234.24 9.98,-417.4 193.49,-549.43 14.93,-10.41 28.04,-24.58 37.57,-40.91l109.41 -185.8c4.85,-8.03 8.36,-15.58 11.18,-23.47 39.05,-108.49 126.27,-378.44 261.62,-809.84 1.65,-4.99 2.89,-9.14 3.74,-12.46 -12.05,70.18 -20.55,132.25 -25.54,186.22 -2.35,21.78 4.26,43.53 18.24,60.62 236.48,296.26 679.3,390.91 1024.98,289.41 590.41,-173.15 845.15,-775.4 627.15,-1352.75 -12.29,-33.9 -41.14,-61.49 -77.47,-72.97 -79.13,-23.59 -154.84,-32.09 -227.08,-25.43 51.48,-14.94 100.68,-21.39 147.62,-19.32 9.53,0.42 165.03,30.53 466.47,90.32 122.08,24.29 234.17,8.09 343.8,18.69 20.33,1.79 37.07,16.76 41.12,36.74 150.09,795.94 -204.93,1543.94 -941.71,1873.4 -539.36,241.23 -1086.6,183.54 -1641.73,-173.13 -7.44,-4.83 -16.12,-7.39 -25,-7.39 -15.11,0 -29.28,7.41 -37.9,19.84l-175.65 249.75c-4.3,6.17 -6.66,13.56 -6.66,21.14 0,11.87 5.75,23.02 15.42,29.92 1058.75,760.46 2509.9,379.31 3053,-779.74 191.82,-410.22 236.88,-859.07 135.14,-1346.52 -0.07,-0.47 -0.21,-1.08 -0.38,-1.67 -3.81,-14.29 -18.78,-22.71 -33.4,-18.78 -0.52,0.14 -1.06,0.3 -1.58,0.47 -17.11,6.26 -26.29,9.39 -27.54,9.39 -0.21,0.02 -0.42,0.02 -0.66,0.02 -6.19,0 -11.2,-5.01 -11.2,-11.2 0,-3.77 1.9,-7.3 5.04,-9.37 362.43,-274.04 673.85,-624.05 984.62,-835.81 329.69,-225.03 651.87,-230.03 966.62,-14.95z"/>
   <path class="fil2" d="M12483.35 1483.35c2.92,35.28 23.89,67.67 62.92,97.14 17.23,12.64 27.43,34.07 26.25,56.26 -45.31,612.71 35.19,1131.65 241.56,1556.84 682.59,1407.54 2261.42,2071.46 3730.01,1478.55 666.4,-269.05 1175.65,-750.69 1527.75,-1444.93l296.45 241.04c-42.77,110.85 -98.82,217.36 -168.16,319.5 -597.9,880.23 -1431.64,1374.74 -2501.19,1483.54 -592.51,60.61 -1190.41,-62.71 -1793.7,-369.97l-338.19 -208.01c-314.32,-231.68 -582.55,-499.48 -804.66,-803.42l-289.63 -487.67c-304.76,-674.7 -383.01,-1375.59 -234.78,-2102.6l245.37 183.73z"/>
   <path class="fil3" d="M12958.56 1999.66c-36.13,171.48 -29.47,353.75 19.94,546.82 154.87,609.95 459.84,1090.76 914.9,1442.44 719.98,557.41 1687.82,689.44 2526.73,342.54 605.79,-251.21 1050.49,-685.93 1334.07,-1304.17l317.64 199.92c-352.1,694.22 -861.35,1175.88 -1527.75,1444.93 -1468.59,592.91 -3047.42,-71.01 -3730.01,-1478.55 -206.37,-425.19 -286.92,-943.78 -241.66,-1555.78 1.28,-23.25 -8.92,-44.68 -26.95,-57.95 -38.51,-29.05 -59.2,-61.23 -62.12,-96.51l475.21 516.31z"/>
   <path class="fil2" d="M13301.11 2231.33c31.56,100.07 60.21,201.59 85.94,304.58 170.66,681.95 675.76,1215.1 1302.92,1453.62 457.56,173.98 917.4,189.75 1379.52,47.34 509.46,-156.94 970.34,-509.46 1233.79,-997.13 34.06,-62.68 71.42,-124.76 112.12,-186.22l338.8 173.77c-283.58,618.24 -728.26,1052.96 -1334.07,1304.17 -838.91,346.9 -1806.75,214.87 -2526.73,-342.54 -455.06,-351.68 -760.03,-832.49 -914.9,-1442.44 -49.41,-193.07 -56.07,-375.34 -19.94,-546.82l342.55 231.67z"/>
   <path class="fil1" d="M8709.74 3167.42c-336.94,224.85 -749.86,68.52 -898.7,-304.55 -95.29,-238.53 127.04,-463.37 305.8,-582.32 178.12,-119.58 470.22,-239.16 654.58,-60.42 288.35,280.26 275.27,721.83 -61.68,947.29z"/>
   <path class="fil1" d="M10167.74 2230.72c-29.89,12.45 -52.51,17.65 -67.88,15.56 -11.16,-1.41 -19.54,-10.95 -19.54,-22.22 0,-6.22 2.57,-12.15 7.11,-16.39 4.97,-4.56 30.51,-4.77 76.57,-0.61 6.29,0.76 10.99,6.08 10.99,12.36 0,4.85 -2.82,9.25 -7.22,11.3l-0.03 0z"/>
   <path class="fil3" d="M13301.11 2231.33l342.54 137.66c18.15,7.67 39.9,11.44 61.6,10.1 265.36,-19.61 508.48,6.92 729.37,79.58 -2.07,19.52 -8.5,37.15 -19.3,52.94 -5.96,8.2 -9.18,18.13 -9.18,28.27 0,8.2 2.09,16.27 6.09,23.43 186.83,331.34 452.12,528.12 795.91,590.41 558.47,100.89 981.78,-97.78 1269.92,-596.02 84.7,-3.74 178.13,19.31 280.26,69.12 -605.36,1159.68 -2208.48,1066.89 -2675.59,-138.25 -16.05,-43.17 -58.19,-72.55 -105.48,-72.88l-251.38 0c-33.19,0.19 -60.02,27.19 -60.02,60.4 0,6.12 0.94,12.22 2.75,18.06 351.84,1111.12 1537.68,1677.24 2601.45,1154.72 415.21,-203.88 695.47,-510.1 840.8,-918.65l304.55 123.3c-40.7,61.46 -78.06,123.54 -112.12,186.22 -263.45,487.67 -724.33,840.19 -1233.79,997.13 -462.12,142.41 -921.96,126.64 -1379.52,-47.34 -627.16,-238.52 -1132.26,-771.67 -1302.92,-1453.62 -25.73,-102.99 -54.38,-204.51 -85.94,-304.58z"/>
   <path class="fil2" d="M16758.32 2626.82c85.54,-1.65 203.05,32.81 352.53,103.4 -145.33,408.55 -425.59,714.77 -840.8,918.65 -1063.77,522.52 -2249.61,-43.6 -2601.49,-1154.7 -1.77,-5.86 -2.71,-11.96 -2.71,-18.08 0,-33.21 26.83,-60.21 60.05,-60.4l250.34 0c48.3,0.33 90.44,29.71 106.87,73.8 466.73,1204.22 2069.85,1297.01 2675.21,137.33z"/>
   <path class="fil3" d="M15048.71 2447.45c108.38,124.99 268.44,177.29 480.2,156.96 158.61,-15.37 250.98,-67.47 277.13,-156.33 100.49,-17.02 194.74,-6.64 282.78,31.14 -426.42,406.48 -850.78,410.86 -1273.03,13.07 69.75,-47.34 147.4,-62.26 232.92,-44.84z"/>
   <path class="fil2" d="M15806.04 2448.08c-26.15,88.86 -118.52,140.96 -277.13,156.33 -211.76,20.33 -371.82,-31.97 -480.2,-156.96l757.33 0.63z"/>
   <path class="fil2" d="M14815.79 2492.29c422.27,397.77 846.59,393.41 1273.03,-13.07l389.24 78.48c-288.14,498.24 -711.45,696.91 -1269.92,596.02 -343.79,-62.29 -609.1,-259.07 -795.93,-590.41 -3.98,-7.16 -6.07,-15.23 -6.07,-23.43 0,-10.14 3.22,-20.07 9.22,-28.27 10.76,-15.79 17.19,-33.42 19.26,-52.94l113.98 69.14c15.01,8.69 31.73,11.32 47.64,7.88l219.55 -43.4z"/>
   <ellipse class="fil1" transform="matrix(0.874174 -2.18559 2.18559 0.874174 7731.94 2826.75)" rx="19.58" ry="7.41"/>
   <path class="fil1" d="M7645.98 3046.59c-4.97,-37.36 0.85,-67.89 17.44,-91.54 3.65,-5.09 9.51,-8.1 15.75,-8.1 9.7,0 17.89,7.2 19.14,16.83 1.25,9.53 -7.68,38.39 -26.79,86.55 -0.73,2.05 -2.12,3.96 -3.95,5.4 -5.7,4.44 -14.08,3.22 -18.74,-2.76 -1.44,-1.81 -2.4,-3.98 -2.8,-6.21l-0.05 -0.17z"/>
   <path class="fil4" d="M17701.9 9048.01c10.38,-230.85 -46.94,-458.6 -171.91,-683.23 -270.3,-484.96 -650.63,-804.67 -1141,-959.13 -983.4,-309.55 -2006.68,176.87 -2404.04,1122.3 -193.07,457.98 -193.07,948.54 0,1471.7l-610.97 -424.13c-16.85,-11.13 -38.01,-11.96 -55.12,-2.31l-1660.73 959.58c-18.05,10.22 -40.55,6.78 -54.28,-8.26 -525.16,-550.87 -1164.34,-939.66 -1917.53,-1166.37 -599.15,-179.98 -1298.57,-253.47 -1895.22,-470.83 -187.47,-68.53 -454.64,-183.75 -615.95,-354.39 -2.5,-2.78 -3.91,-6.38 -3.91,-10.12 0,-8.26 6.68,-14.95 14.95,-14.95 0.68,0 1.39,0.05 2.07,0.14 1568.63,286.1 3000.88,35.31 4296.74,-752.34 1092.41,-663.92 1899.15,-1615.36 2420.24,-2854.35 603.29,307.26 1201.19,430.58 1793.7,369.97 1069.58,-108.8 1903.29,-603.31 2501.19,-1483.54 69.34,-102.14 125.39,-208.65 168.16,-319.5 404.41,335.48 723.51,738.24 957.27,1208.25 2.05,4.4 2.48,9.46 1.28,14.33 -260.77,951.23 -253.52,1836.05 21.75,2654.41 444.07,1319.73 1468.59,2314.36 2803.9,2733.5 10.05,3.2 16.83,12.55 16.83,23.07 0,5.68 -1.97,11.16 -5.6,15.51 -207.62,257.88 -345.89,530.06 -414.81,816.56 -4.82,19.25 -7.39,40.02 -7.46,60.66l-0.02 864.2c-0.12,10.85 -9,19.61 -19.89,19.61 -4.01,0 -7.91,-1.2 -11.23,-3.46l-4008.41 -2826.88zm757.32 -3946.77c0.03,-217.69 -176.52,-394.23 -394.21,-394.23 -217.69,0 -394.23,176.54 -394.23,394.23 0,217.69 176.54,394.24 394.23,394.24 217.69,0 394.24,-176.55 394.24,-394.24l-0.03 0zm-7317.4 3708.22c0.03,-174.71 -141.66,-316.39 -316.36,-316.39 -174.71,0 -316.4,141.68 -316.4,316.39 0,174.71 141.69,316.39 316.4,316.39 174.7,0 316.39,-141.68 316.39,-316.39l-0.03 0zm9527.77 1083.7c0,-249.33 -202.2,-451.53 -451.53,-451.53 -249.33,0 -451.53,202.2 -451.53,451.48 0,249.33 202.2,451.53 451.53,451.53 249.33,0 451.53,-202.2 451.53,-451.53l0 0.05z"/>
   <path class="fil1" d="M13567.05 4693.31c-538.1,1276.77 -1373.51,2225.31 -2506.2,2845.61 -1459.86,799.07 -3114.67,908.69 -4673.56,330.1 -20.32,-7.72 -38.25,-21.1 -51.67,-38.61 -253.28,-332.59 -346.52,-721.43 -279.67,-1166.54 0.63,-3.86 1.55,-7.32 2.75,-10.66 10.59,-29.07 42.49,-44.16 71.26,-33.68 3.41,1.22 6.7,2.82 9.81,4.7 994.28,591.45 2261.68,734.08 3368.43,449.46 1586.92,-408.57 2782.08,-1599.99 3254.19,-3183.8 222.14,303.94 490.34,571.74 804.66,803.42z"/>
   <path class="fil5" d="M23575.61 8389.68l-231.68 477.71c-3.53,7.27 -10.92,11.86 -18.99,11.86 -0.31,0 -0.61,0 -0.92,-0.02 -724.14,-37.78 -1334.3,-280.68 -1830.46,-728.71 -655.62,-590.83 -979.47,-1325.75 -971.59,-2204.73 4.15,-473.33 131.82,-932.14 383.03,-1376.42 2.64,-5.32 8.2,-8.71 14.34,-8.71l577.96 0c1.25,-0.07 2.47,0.1 3.63,0.47 5.55,1.82 8.52,8.05 6.61,13.94 -0.35,1.08 -0.85,2.09 -1.48,3.04 -607.91,833.31 -635.31,1859.08 -107.18,2691.15 471.68,743.23 1193.11,1110.25 2164.28,1101.12 7.58,0.02 13.67,6.14 13.67,13.7 0,1.93 -0.4,3.84 -1.2,5.6l-0.02 0z"/>
   <path class="fil6" d="M20755.53 4576.83c2.5,-2.49 15.37,-3.31 38.6,-2.47 10.97,0.54 19.59,9.56 19.59,20.53 0,5.67 -2.35,11.09 -6.47,14.97 -7.91,7.46 -18.93,10.99 -33.03,10.59 -14.1,-0.44 -25.33,-12.03 -25.33,-26.15 0,-6.43 2.38,-12.66 6.66,-17.44l-0.02 -0.03z"/>
   <path class="fil3" d="M20634.07 4660.3c-4.57,2.5 -21.8,6.03 -51.7,10.6 -1.05,0.26 -2.16,0.4 -3.29,0.4 -7.56,0 -13.7,-6.15 -13.7,-13.7 0,-4.73 2.45,-9.11 6.45,-11.63 11.18,-7.89 30.06,-11.63 56.63,-11.21 7.11,0.64 12.53,6.57 12.53,13.66 0,4.92 -2.64,9.44 -6.9,11.88l-0.02 0z"/>
   <path class="fil5" d="M21593.2 4655.95c-4.31,-2.07 -7.06,-6.45 -7.06,-11.25 0,-0.83 0.09,-1.65 0.23,-2.45l-0.02 -0.64c3.39,-3.97 8.94,-5.03 13.11,-2.49l153.81 79.11c7.86,3.91 15.51,9.59 22.12,16.55 260.96,267.57 314.82,580.11 161.6,937.6 -6.76,15.81 -12.19,34.41 -15.25,53.38 -136.08,1012.85 600.7,1857.39 1623.97,1752.13 4.36,-0.45 8.76,-0.69 13.11,-0.69 68.43,0 123.94,55.51 123.94,123.94 0,0.02 0,0.07 0,0.07l-0.02 240.41c0.02,0.07 0.02,0.14 0.02,0.18 0,70.25 -55.04,128.22 -125.18,131.85 -383.67,19.51 -723.74,-45.46 -1020.2,-194.93 -1078.71,-543.71 -1491.63,-1916.41 -747.98,-2921.6 9.23,-12.5 14.22,-27.69 14.22,-43.22 0,-26.62 -14.53,-51.13 -37.88,-63.91l-172.54 -94.04z"/>
   <path class="fil5" d="M22754.75 9209.93c-3.32,3.74 -29.9,6.24 -79.73,7.49 -20.79,0.66 -37.31,17.75 -37.31,38.58 0,2.31 0.21,4.61 0.61,6.87 2.05,11.63 9.93,28.86 23.63,51.69 80.34,136.39 -13.7,340.69 -114.61,432.87 -13.46,13.11 -33.78,18.81 -53.25,14.45 -1550.48,-363.23 -2703.93,-1661.17 -2932.5,-3226.29 -65.18,-449.68 -43.38,-925.71 65.4,-1428.11 3.97,-19.7 16.54,-36.63 34.29,-46.09 261.15,-140.76 519.18,-259.92 774.12,-357.49 5.39,-2.07 11.22,-1.86 17.44,0.61 1.53,0.75 2.47,2.26 2.47,3.93 0,1.41 -0.68,2.73 -1.84,3.56l-59.17 34.25c-16.53,9.32 -30.11,24.76 -37.6,43.19 -626.94,1654.6 83.69,3438.95 1687.42,4185.69 279.86,130.38 511.95,198.06 696.31,203.05 10.5,0.23 18.91,8.8 18.91,19.3 0,4.57 -1.63,8.97 -4.57,12.45l-0.02 0z"/>
   <circle class="fil7" cx="18064.99" cy="5101.24" r="394.24"/>
   <path class="fil4" d="M19382.86 4818.49c0.12,0.4 0.16,0.82 0.16,1.22 0,2.76 -2.23,4.99 -4.99,4.99 -1.2,0 -2.35,-0.42 -3.27,-1.22 -5.39,-4.57 -8.92,-9.96 -10.59,-16.2 -0.12,-0.66 -0.19,-1.27 -0.17,-1.86 0.12,-3.46 2.74,-6.14 5.82,-6.05 0.66,0.03 1.32,0.19 1.93,0.48 5.74,1.64 9.44,7.86 11.11,18.64z"/>
   <path class="fil3" d="M19438.27 4915.02c17.04,53.58 22.43,85.33 16.2,95.31 -1.63,2.55 -3.91,4.59 -6.57,6.01 -8.5,4.54 -18.93,1.55 -23.28,-6.64 -1.44,-2.69 -2.07,-5.72 -1.88,-8.76l3.08 -84.03c-0.02,-0.31 -0.05,-0.64 -0.05,-0.95 0,-3.48 2.83,-6.3 6.31,-6.3 3.13,0 5.77,2.28 6.24,5.36l-0.05 0z"/>
   <path class="fil3" d="M19501.8 5169.77c-4.21,0.35 -8.16,-0.8 -11.18,-3.28 -7.48,-6.05 -7.6,-18.33 -0.23,-27.42 3.06,-3.79 7.11,-6.59 11.44,-7.93 6.64,-2.07 13.67,1.46 21.16,10.59 4.26,4.83 4.02,12.03 -0.52,16.15 0,0 -0.02,0 -0.02,0 -7.53,7.08 -14.41,11.06 -20.65,11.89z"/>
   <path class="fil5" d="M22647.62 6065.98c-5.82,35.31 -5.6,65.2 0.63,89.68 96.75,365.38 329.88,565.72 699.4,601.03 32.37,2.92 61.56,21.94 77.71,50.75l149 274.35c1.84,3.34 2.78,7.09 2.78,10.9 0,12.73 -10.31,23.05 -23.05,23.05 -2.85,0 -5.69,-0.55 -8.35,-1.58 -94.68,-38.61 -264.73,-5.58 -383.67,-35.48 -428.49,-108.79 -706.06,-376.18 -832.7,-802.19 -45.27,-151.97 -52.73,-289.18 -22.41,-411.68 1.17,-4.87 1.76,-9.89 1.76,-14.9 0,-20.71 -9.91,-40.18 -26.64,-52.38 -71.87,-51.48 -144.75,-82.59 -218.66,-93.4 -7.65,-1.08 -13.37,-7.65 -13.37,-15.42 0,-1.08 0.12,-2.19 0.35,-3.25l0.57 -0.63c1.1,-4.59 6.05,-7.44 11.06,-6.29 0.02,0.03 0.07,0.03 0.1,0.03 213.87,59.39 402.59,168.61 566.19,327.62 15.86,15.25 23.21,37.64 19.39,59.46l-0.09 0.33z"/>
   <ellipse class="fil3" transform="matrix(-1.66448 -1.66448 1.66448 -1.66448 23016.3 6360.57)" rx="197.11" ry="7.14"/>
   <path class="fil1" d="M6153.12 6395.46l-40.49 108.37c-0.78,1.79 -2.57,2.97 -4.54,2.97 -2.22,0 -4.17,-1.46 -4.8,-3.6 -11.21,-57.72 -7.47,-100.47 11.2,-128.29 2.57,-3.77 6.47,-6.71 10.97,-8.17 11.46,-3.72 23.84,2.8 27.68,14.59 1.46,4.52 1.51,9.39 0.1,13.89l-0.12 0.24z"/>
   <path class="fil6" d="M23571.25 7303.51c-3.32,-9.14 -5.18,-39.64 -5.6,-91.55 0.35,-14.9 12.52,-26.81 27.42,-26.81 11.3,0 21.45,6.95 25.54,17.47 13.68,39.03 20.11,69.53 19.28,91.54 -0.87,18.22 -15.91,32.56 -34.18,32.56 -14.66,0 -27.7,-9.35 -32.41,-23.21l-0.05 0z"/>
   <path class="fil7" d="M17701.9 9048.01l-2840.02 1542.08c-6.21,3.18 -13.14,4.89 -20.17,4.89 -9.07,0 -17.89,-2.82 -25.28,-8.07l-831.48 -587.26c-193.07,-523.16 -193.07,-1013.72 0,-1471.7 397.36,-945.43 1420.64,-1431.85 2404.04,-1122.3 490.37,154.46 870.7,474.17 1141,959.13 124.97,224.63 182.29,452.38 171.91,683.23z"/>
   <path class="fil1" d="M6589.09 8091.37c51.06,39.85 107.1,76.81 168.14,110.84 6.24,3.32 10.19,7.91 11.84,13.73 0.09,0.28 0.14,0.56 0.14,0.87 0,2.07 -1.67,3.74 -3.74,3.74 -0.47,0 -0.92,-0.09 -1.34,-0.26 -69.37,-30.72 -132.08,-68.1 -188.13,-112.11 -56.05,-44.02 -107.13,-96.12 -153.22,-156.33 -0.58,-0.68 -0.94,-1.58 -0.94,-2.49 0,-2.08 1.67,-3.75 3.75,-3.75 0.11,0 0.23,0 0.35,0.03 6.21,0.4 11.58,3.32 16.15,8.71 47.33,51.08 96.34,96.74 147,137.02z"/>
   <path class="fil6" d="M23589.94 8217.16c-9.98,-37.35 -8.09,-72.03 5.61,-103.99 3.06,-6.17 9.34,-10.08 16.21,-10.08 9.77,0 17.78,7.77 18.06,17.54 -0.02,43.59 -4.17,76.19 -12.48,97.78 -1.97,5.77 -7.41,9.6 -13.49,9.6 -6.56,0 -12.28,-4.47 -13.91,-10.82l0 -0.03z"/>
   <path class="fil4" d="M6861.25 8235.85c6.24,1.25 12.24,8.74 18.06,22.44 1.03,1.76 1.48,3.88 1.24,6 -0.61,5.81 -6.09,10 -12.24,9.37 -2.07,-0.24 -4.05,-0.99 -5.72,-2.22 -6.71,-5.03 -11.72,-9.62 -15.04,-13.79 -1.84,-2.4 -2.85,-5.37 -2.85,-8.4 0,-7.56 6.15,-13.7 13.7,-13.7 0.97,0 1.93,0.09 2.87,0.3l-0.02 0z"/>
   <path class="fil4" d="M6984.57 8272.6c-14.94,2.92 -22.83,4.35 -23.68,4.35 -5.69,-2 -9.53,-7.41 -9.53,-13.49 0,-5.83 3.53,-11.08 8.94,-13.27 6.22,-2.07 14.93,-0.64 26.13,4.35 3.75,1.32 6.24,4.85 6.24,8.81 0,4.68 -3.46,8.64 -8.1,9.25z"/>
   <circle class="fil0" cx="10825.43" cy="8809.46" r="316.39"/>
   <path class="fil3" d="M22937.22 9185.64c107.13,-27.4 201.59,-100.89 283.39,-220.47 0.07,-0.09 0.24,-0.33 0.4,-0.54 5.58,-7.42 16.36,-8.71 24.06,-2.92 0.12,0.09 0.23,0.19 0.35,0.28l0.73 0.07c2.24,2.1 3.49,5.04 3.49,8.1 0,2.75 -1.02,5.41 -2.85,7.46 -66.45,75.16 -151.57,149.27 -255.38,222.35 -24.5,17.02 -43.38,22.63 -56.66,16.81 -2.57,-1.06 -4.66,-2.59 -6.31,-4.54 -5.74,-6.85 -4.64,-17.26 2.47,-23.21 1.91,-1.6 4.15,-2.78 6.55,-3.44l-0.24 0.05z"/>
   <path class="fil8" d="M12502.04 13136.12l-27.4 0c0.03,-0.05 0,-0.05 0,-0.05 -13.96,0 -25.47,-10.97 -26.13,-24.9l-23.7 -465.82c0.23,-4.19 -0.31,-9.04 -1.48,-13.58 -30.56,-114.69 -46.47,-261.9 -47.72,-441.69 0,-4.99 2.59,-9.54 6.81,-11.84l5278.35 -2869.28c14.5,-7.98 32.56,-7.06 46.68,2.45l4017.78 2828.86c17.28,11.51 27.09,32.22 25.02,53.41 -15.01,135.87 -29.99,258.6 -44.93,368.22 -166.31,1218.21 -1259.33,1881.5 -2325.59,2318.72 -1.11,0.42 -2.33,0.68 -3.58,0.68 -4,0 -7.56,-2.54 -8.85,-6.33l-0.64 0.05c0.33,-4.5 3.21,-8.46 7.33,-9.96l192.59 -74.74c15.33,-5.77 25.5,-20.43 25.5,-36.79 0,-10.24 -4,-20.08 -11.16,-27.4 -1824.84,-1921.32 -4519.12,-2621.38 -7047.74,-1799.27 -81.58,26.78 -111.48,133.28 -24.9,186.85 4.07,1.93 6.66,6.07 6.66,10.59 0,6.55 -5.29,11.84 -11.84,11.84 -0.35,0 -0.68,-0.02 -1.03,-0.04l-0.03 0.02zm5190.51 -2872.38c0.02,-141.05 -114.33,-255.4 -255.33,-255.4 -141,0 -255.35,114.35 -255.35,255.35 0,141 114.35,255.36 255.35,255.36 141,0 255.35,-114.36 255.35,-255.36l-0.02 0.05zm-1601.26 538.72c-34.04,-14.52 -58.54,-20.97 -73.49,-19.3 -7.13,0.66 -13.65,2.19 -19.87,4.56 -43.33,16.65 -62.99,70.5 -43.9,120.27 2.78,7.22 6.31,14.14 10.5,20.57 32.6,51.29 79.85,93.97 141.71,128.01 22.64,12.14 33.19,39.33 24.48,63.67l-100.47 265.78c-5.04,14.05 -18.41,23.47 -33.38,23.47 -9.41,0 -18.47,-3.77 -25.14,-10.43l-152.6 -152.53c-6.52,-6.48 -15.96,-7.89 -23.23,-3.67 -97.46,50.18 -116.69,119.72 -57.72,208.58 119.58,179.37 270.27,203.02 155.07,468.97 -6.52,15.35 -21.65,25.35 -38.39,25.35 -13.42,0 -26.01,-6.45 -33.85,-17.32 -52.33,-73.04 -101.31,-102.28 -147,-87.76 -4.94,1.58 -9.56,3.58 -13.94,6.01 -44.82,24.83 -56.68,89.12 -26.5,143.56 3.01,5.42 6.4,10.64 10.07,15.56 131.89,178.05 222.83,192.36 255.22,458.31 3.01,23.73 22.64,40.87 45.57,40.39l24.17 0.1c0.05,-0.05 0.05,-0.05 0.05,-0.05 40.44,0 73.44,-32.44 74.13,-72.88 1.62,-97.54 19.25,-163.12 52.89,-196.76 5.2,-4.97 10.31,-8.69 15.7,-11.49l135.02 -64.5c31.8,-15.04 52.09,-47.07 52.09,-82.24 0,-50.21 -40.72,-90.93 -90.93,-90.93 -0.33,0 -0.71,0 -1.01,0l-83.47 0.04c-0.66,-0.04 -1.51,-0.07 -2.31,-0.14 -20.24,-1.41 -35.52,-18.69 -34.13,-38.6 0.07,-0.97 0.16,-1.96 0.33,-2.92 22.41,-141.45 33.61,-198.13 174.99,-246.69 102.14,-34.89 202.63,-106.92 301.44,-216.12 14.17,-15.53 22.01,-35.75 22.01,-56.73 0,-46.42 -37.66,-84.08 -84.08,-84.08 -0.26,0 -0.54,0 -0.8,0l-13.75 1.29c-28.36,2.17 -53.41,11.92 -73.82,28.04l-146.01 113.34c-3.81,2.73 -8.4,4.22 -13.14,4.22 -12.38,0 -22.43,-10.06 -22.43,-22.44 0,-0.59 0.03,-1.17 0.07,-1.76 16.81,-178.69 62.9,-401.04 229.82,-483.24 30.97,-15.75 50.51,-47.55 50.51,-82.27 0,-50.45 -40.56,-91.52 -90.98,-92.18l-42.37 0.05c-20.67,0.07 -38.18,-15.78 -40.46,-36.73 -5.84,-49.43 -17.47,-97.59 -34.91,-144.5 -12.69,-33.69 -44.94,-55.98 -80.93,-55.98 -47.76,0 -86.51,38.68 -86.58,86.46l-0.02 117.74c-0.12,17.73 -14.57,32.09 -32.37,32.09 -4.05,0 -8.07,-0.76 -11.84,-2.24l-0.02 0.05zm2658.79 1238.14l-355 -249.75c-39.78,-28.51 -95.22,-25.37 -132.57,8.07l-12.55 11.87c-48.61,49.76 -50.91,126.5 -6.73,178.4 153.55,185.42 343.25,316.11 569.13,392.1 81.94,27.51 141.97,98.84 155.05,184.52l31.78 213.46c0.38,2.11 0.57,4.33 0.57,6.54 0,23.04 -18.69,41.73 -41.74,41.73 -7.15,0 -14.22,-1.86 -20.45,-5.36 -127.89,-70.97 -211.57,-51.84 -251.03,57.36 -22.81,64.71 7.16,135.68 69.75,169.13 22.43,12.64 77.23,40.14 164.45,82.48 80.67,38.73 132.03,120.34 132.03,209.86l0 170.68c0.02,49.81 40.18,90.25 89.71,90.25l68.47 0.05c1.18,-0.05 2.33,-0.07 3.49,-0.1 50.86,-1.79 90.67,-44.75 88.88,-95.97 -0.05,-0.99 -0.09,-2.02 -0.16,-3.01 -13.73,-194.69 29.44,-336.05 129.51,-424.08 126.22,-110.85 223.39,-228.36 291.49,-352.5 5.36,-9.77 9.06,-20.32 10.99,-31.22 9.79,-55.53 -27.59,-108.56 -83.5,-118.42 -10.8,-1.91 -21.89,-2.08 -32.74,-0.52l-110.87 16.88c-21.3,3.53 -39.83,16.31 -50.42,34.83 -34.06,59.82 -67.3,100.52 -99.69,122.1 -0.54,0.31 -0.92,0.54 -1.29,0.76 -16.67,9.62 -37.88,4.16 -47.32,-12.22 -0.23,-0.4 -0.47,-0.83 -0.68,-1.23 -82.98,-154.3 -104.75,-291.44 -65.3,-411.44 46.7,-144.48 210.51,-247.87 288.99,-369.94 49.55,-80.04 40.52,-180.17 -20.57,-248.22l-5.6 -6.52c-20.06,-22.96 -49.06,-36.09 -79.54,-36.09 -34.91,0 -67.58,17.23 -87.33,46.02l-178.78 260.37c-9.28,13.37 -24.58,21.37 -40.89,21.37 -22.57,0 -42.32,-15.18 -48.14,-36.98l-122.1 -476.41c-14,-54.97 10.57,-112.52 60.01,-140.91 150.15,-87.09 212.77,-181.3 187.86,-282.59 -0.04,-0.3 -0.12,-0.58 -0.16,-0.84 -15,-60.05 -76.11,-96.56 -136.51,-81.52 -0.11,0.05 -0.21,0.07 -0.33,0.09l-109.01 28.09c-2.4,0.54 -4.92,0.84 -7.44,0.84 -17.06,0 -30.95,-13.74 -31.14,-30.81l-0.02 -219.17c0.02,-0.03 0.02,-0.07 0.02,-0.07 0,-41.93 -26.1,-79.45 -65.39,-94.02l-35.54 -13.65c-10.22,-3.84 -21.07,-5.82 -31.99,-5.82 -38.14,0 -72.27,23.66 -85.69,59.35l-108.4 288.4c-3.24,8.71 -11.6,14.52 -20.97,14.52 -1.11,0 -2.21,-0.09 -3.29,-0.23l-87.83 -12.43c-37.38,-5.77 -74.62,14.95 -90.04,50.49 -18.03,30.27 -26.43,75.94 -25.18,136.98 0.23,27.35 16.36,52.44 41.4,63.95 307.99,139.71 339.13,466.69 390.19,775.6 0.23,1.25 0.35,2.59 0.35,3.93 0,14.1 -11.44,25.54 -25.54,25.54 -5.22,0 -10.36,-1.6 -14.64,-4.61l-0.02 0.04zm-3889.45 -189.32c0.03,-226.69 -183.77,-410.48 -410.41,-410.48 -226.63,0 -410.43,183.79 -410.43,410.43 0,226.64 183.8,410.43 410.43,410.43 226.64,0 410.44,-183.79 410.44,-410.43l-0.03 0.05zm2711.09 505.1c0.03,-113.2 -91.73,-204.95 -204.88,-204.95 -113.16,0 -204.91,91.75 -204.91,204.9 0,113.16 91.75,204.91 204.91,204.91 113.15,0 204.91,-91.75 204.91,-204.91l-0.03 0.05zm3344.49 486.42c0.02,-162.73 -131.89,-294.64 -294.57,-294.64 -162.68,0 -294.6,131.91 -294.6,294.59 0,162.68 131.92,294.6 294.6,294.6 162.68,0 294.59,-131.92 294.59,-294.6l-0.02 0.05z"/>
   <circle class="fil0" cx="20218.03" cy="9893.16" r="451.53"/>
   <ellipse class="fil3" transform="matrix(1.81635 -1.49728 1.49728 1.81635 22353.7 9913.71)" rx="76.2" ry="5.55"/>
   <path class="fil9" d="M14450.2 10811.17c-72.24,-95.08 -163.39,-134.72 -273.43,-118.95 -19.14,2.69 -37.85,10.55 -53.81,22.77 -143.07,111.88 -155.03,209.54 -35.88,292.99l-416.03 229.81c-16.19,-46.49 -58.12,-57.9 -125.79,-34.24 -0.57,0.16 -0.69,0.18 -0.8,0.23 -22.37,6.83 -45.95,-5.51 -52.68,-27.54 -0.08,-0.21 -0.15,-0.42 -0.19,-0.64 -35.41,-115.93 61.13,-221.17 153.94,-324.56 13.16,-14.85 20.44,-33.99 20.44,-53.78 0,-44.73 -36.25,-80.98 -80.98,-80.98 -14.15,0 -28.08,3.72 -40.35,10.76 -11.22,6.26 -36.13,39.71 -74.76,100.32 -7.86,12.34 -21.53,19.82 -36.2,19.82 -19.63,0 -36.77,-13.3 -41.64,-32.32l-39.24 -153.78c-0.54,-2.52 -0.85,-5.04 -0.85,-7.55 0,-4.5 0.94,-8.95 2.76,-13.07l108.96 -224.14c0.21,-0.42 0.56,-1.27 0.89,-2.09 6.52,-17.02 -1.71,-36.02 -18.43,-42.42 -0.82,-0.33 -1.69,-0.61 -2.56,-0.85 -23.57,-6.71 -52.35,-6.12 -86.42,1.77 -1.22,0.21 -2.14,0.35 -3.03,0.44 -13.68,1.44 -25.92,-8.21 -27.31,-21.54 -0.12,-1.01 -0.14,-2.02 -0.12,-3.03l-0.04 -89.85c0.11,-20.95 -11.73,-40.09 -30.42,-49.2l-21.28 -9.98c-1.76,-0.94 -3.95,-1.86 -6.21,-2.64 -28.29,-9.74 -59.22,5.56 -69.09,34.16 -0.73,2.19 -1.36,4.43 -1.83,6.66 -14.6,76.27 -60.31,131.44 -137.12,165.48 -20.48,9.04 -33.71,29.38 -33.71,51.79 0,21.18 11.82,40.58 30.6,50.33 78.48,41.12 127.47,96.37 146.98,165.69 34.89,123.75 52.94,191 54.19,201.8 0.05,0.38 0.07,0.83 0.07,1.27 0,10.67 -8.64,19.3 -19.3,19.3 -3.79,0 -7.49,-1.1 -10.64,-3.2 -68.52,-46.04 -111.51,-75.7 -128.95,-89 -6.8,-5.39 -13.94,-9.51 -21.49,-12.71 -39.24,-16.67 -81.54,-5.53 -94.44,24.86 -2.45,5.76 -3.72,12.03 -3.74,18.5 -2.4,115.08 195.65,218.47 295.93,253.99 10.71,3.55 22.39,9.81 32.75,17.91 50.39,39.38 59.5,111.98 20.33,162.12 -8.12,10.35 -17.98,19.3 -29.11,26.34l-45.15 27.8c-19.35,12.14 -28.86,35.19 -23.61,57.25 6.61,29.51 26.1,52.77 58.49,69.79l-480.81 259.1c-60.22,-34.47 -85.33,-74.11 -75.35,-118.95 3.6,-15.98 13.51,-29.73 27.4,-38.04 81.37,-50.21 137.63,-87.99 168.78,-113.32 9.36,-7.48 14.8,-18.78 14.8,-30.71 0,-21.66 -17.58,-39.24 -39.24,-39.24 -3.51,0 -7.04,0.47 -10.43,1.41l-74.12 19.35c-1.63,0.4 -3.3,0.63 -4.99,0.66 -12.05,0.21 -21.99,-9.68 -22.2,-22.06 -0.02,-1.6 0.12,-3.22 0.42,-4.8 15.35,-74.72 48.35,-126.81 99.01,-156.28 1.72,-1.06 3.06,-1.98 4.36,-2.97 16.26,-12.71 18.97,-36.41 6.05,-52.96 -0.97,-1.22 -2.03,-2.42 -3.14,-3.53l-123.11 -123.65c-1.03,-1.04 -2.42,-1.6 -3.86,-1.6 -2,0 -3.83,1.06 -4.85,2.8l-90.32 139.54c-3.06,4.57 -4.68,9.96 -4.68,15.49 0,6.92 2.57,13.6 7.18,18.74 39.85,41.97 47.95,89.92 24.27,143.92 -13.28,29.89 -30.51,43.59 -51.69,41.09 -18.27,-2.07 -37.57,-16.61 -57.91,-43.59 -9.35,-11.84 -28.04,-1.25 -34.89,9.96 -13.7,22.43 37.38,108.98 77.85,188.71 11.09,21.38 4.38,47.74 -15.61,61.65 -18.24,12.88 -40.23,11.63 -65.98,-3.72 -7.67,-4.96 -17.54,-7.34 -27.42,-6.47 -23.96,2.09 -41.78,22.41 -39.78,45.36 0.84,9.56 5.08,18.52 12.03,25.4 50.06,50.96 86.31,103.45 108.75,157.43l-256.6 157.57c-1.02,0.61 -2.34,1.25 -3.75,1.7 -9.15,2.98 -19.09,-2.29 -22.17,-11.77 -0.43,-1.32 -0.71,-2.69 -0.83,-4.05 -3.76,-58.69 -17.49,-126.43 -41.14,-203.24 -133.28,-426.42 -331.13,-793.06 -593.55,-1099.9 -1.9,-2.19 -2.96,-4.99 -2.96,-7.88 0,-1.13 0.16,-2.29 0.49,-3.37 1.23,-5.79 1.65,-10.95 1.23,-15.51 -0.83,-5.42 0,-6.24 2.49,-2.5 14.13,24.91 27.61,46.49 40.49,64.76 6.68,9.25 17.42,14.76 28.86,14.76 6.28,0 12.45,-1.67 17.87,-4.83l1526.49 -881.24c20.37,-11.51 44.89,-10.33 63.35,2.73l1224.61 862.36c7.15,4.97 11.39,13.14 11.39,21.85 0,7.88 -3.48,15.37 -9.49,20.45 -41.12,34.09 -90.13,61.91 -147,83.5z"/>
   <circle class="fil4" cx="17437.2" cy="10263.74" r="255.35"/>
   <path class="fil10" d="M13671.05 11237.79l-381.15 209.27c-32.39,-17.02 -51.9,-40.28 -58.54,-69.75 -5.2,-22.1 4.31,-45.15 23.7,-57.34l43.55 -26.74c12.69,-8.05 22.55,-17 30.67,-27.35 39.17,-50.14 30.06,-122.74 -20.33,-162.12 -10.36,-8.1 -22.04,-14.36 -34.44,-18.57 -98.59,-34.86 -296.64,-138.25 -294.15,-254.08 -0.07,-5.72 1.2,-11.99 3.65,-17.75 12.9,-30.39 55.2,-41.53 94.44,-24.86 7.55,3.2 14.69,7.32 21.09,12.19 17.7,13.63 60.8,43.5 129.32,89.59 3.18,2.03 6.88,3.13 10.67,3.13 10.66,0 19.3,-8.63 19.3,-19.3 0,-0.44 -0.02,-0.89 -0.05,-1.32 -1.27,-10.75 -19.32,-78 -54.21,-201.75 -19.51,-69.32 -68.5,-124.55 -146.98,-165.67 -18.78,-9.77 -30.6,-29.17 -30.6,-50.35 0,-22.41 13.23,-42.75 33.73,-51.83 76.81,-34.02 122.48,-89.01 137,-164.99 0.57,-2.68 1.2,-4.92 1.93,-7.11 9.87,-28.6 40.8,-43.9 69.09,-34.16 2.26,0.78 4.45,1.7 6.59,2.76l20.79 9.86c18.8,9.11 30.64,28.25 30.55,49.25l-0.02 90.25c0.02,0.56 0.04,1.57 0.16,2.58 1.39,13.33 13.63,22.98 27.31,21.54 0.89,-0.09 1.81,-0.23 2.7,-0.42 34.28,-7.91 63.04,-8.55 86.3,-1.91 1.32,0.36 2.19,0.64 3.01,0.97 16.72,6.4 24.95,25.4 18.43,42.42 -0.33,0.82 -0.68,1.67 -1.06,2.47l-108.84 223.83c-1.77,4.05 -2.71,8.5 -2.71,13 0,2.51 0.31,5.03 0.87,7.51l39.22 153.87c4.87,18.97 22.01,32.27 41.64,32.27 14.67,0 28.34,-7.48 36.23,-19.86 38.6,-60.59 63.51,-94 74.71,-100.21 12.29,-7.11 26.22,-10.83 40.37,-10.83 44.73,0 80.98,36.25 80.98,80.98 0,19.79 -7.28,38.93 -20.41,53.74 -92.84,103.43 -189.38,208.67 -153.88,325.15 -0.05,-0.33 0.02,-0.12 0.1,0.09 6.73,22.03 30.31,34.37 52.68,27.54 0.11,-0.05 0.23,-0.07 0.33,-0.12 67.98,-23.75 110.07,-12.36 126.26,34.13z"/>
   <path class="fil0" d="M16135.52 10772.56l0 -117.72c0.09,-47.8 38.84,-86.48 86.6,-86.48 35.99,0 68.24,22.29 80.98,55.93 17.42,46.94 29.02,95.12 34.83,144.53 2.31,20.97 19.82,36.82 40.59,36.7l42.25 0.05c50.44,0.61 91,41.68 91,92.13 0,34.72 -19.54,66.52 -50.51,82.22 -166.92,82.25 -213.01,304.6 -229.82,483.33 -0.04,0.55 -0.07,1.13 -0.07,1.72 0,12.38 10.05,22.44 22.43,22.44 4.74,0 9.33,-1.49 13.16,-4.27l147.57 -114.54c18.83,-14.87 43.88,-24.62 70.24,-26.64l15.73 -1.39c0.28,-0.05 0.56,-0.05 0.82,-0.05 46.42,0 84.08,37.66 84.08,84.08 0,20.98 -7.84,41.2 -21.98,56.69 -98.84,109.22 -199.33,181.27 -301.47,216.16 -141.38,48.56 -152.58,105.24 -175.02,246.62 -0.14,1.03 -0.23,2.02 -0.3,2.99 -1.39,19.91 13.89,37.19 34.13,38.6 0.8,0.07 1.65,0.1 2.45,0.1l83.3 0.04c0.33,-0.04 0.71,-0.04 1.04,-0.04 50.21,0 90.93,40.72 90.93,90.93 0,35.17 -20.29,67.2 -52.09,82.22l-135.77 64.8c-4.64,2.52 -9.75,6.24 -14.34,10.74 -34.04,33.94 -51.9,99.71 -53.55,197.28 -0.64,40.39 -33.64,72.83 -74.08,72.83 0,0 0,0 0,0l-24.95 0.05c-22.2,0.38 -41.83,-16.76 -44.75,-39.85 -32.48,-266.59 -123.42,-280.9 -255.45,-459.02 -3.53,-4.85 -6.92,-10.07 -9.93,-15.49 -30.18,-54.44 -18.32,-118.73 26.5,-143.56 4.38,-2.43 9,-4.43 13.77,-5.96 45.79,-14.57 94.84,14.69 147.15,87.78 7.86,10.8 20.45,17.25 33.87,17.25 16.74,0 31.87,-10 38.42,-25.42 115.17,-265.88 -35.52,-289.53 -155.1,-468.9 -58.97,-88.86 -39.67,-158.42 57.9,-208.65 7.09,-4.15 16.53,-2.74 22.91,3.53l152.72 152.79c6.69,6.61 15.75,10.38 25.16,10.38 14.97,0 28.34,-9.42 33.41,-23.52l100.25 -265.26c8.9,-24.81 -1.65,-52 -24.67,-64.43 -61.6,-33.85 -108.82,-76.52 -141.61,-128 -3.91,-6.15 -7.44,-13.07 -10.22,-20.29 -19.09,-49.77 0.57,-103.62 43.9,-120.27 6.22,-2.37 12.74,-3.9 19.4,-4.54 15.28,-1.67 39.92,4.76 73.96,19.28 3.79,1.43 7.81,2.19 11.86,2.19 17.8,0 32.25,-14.36 32.39,-32.13l-0.02 0.04z"/>
   <path class="fil0" d="M18789.93 12015.7c-51.06,-308.91 -82.2,-635.89 -389.88,-775.41 -25.35,-11.7 -41.48,-36.79 -41.69,-64.57 -1.27,-60.75 7.04,-106.07 24.88,-135.96 15.7,-36.13 52.94,-56.85 90.93,-51.03l87.19 12.4c1.11,0.12 2.21,0.21 3.32,0.21 9.37,0 17.73,-5.81 21.02,-14.57l108.33 -288.33c13.44,-35.71 47.57,-59.37 85.71,-59.37 10.92,0 21.77,1.98 32.01,5.77l35.5 13.75c39.31,14.52 65.41,52.04 65.41,93.97 0,0 0,0.04 0,0.04l-0.02 219.27c0.21,17 14.1,30.74 31.16,30.74 2.52,0 5.04,-0.3 7.49,-0.91l108.94 -27.97c0.14,-0.07 0.24,-0.09 0.35,-0.14 60.4,-15.04 121.51,21.47 136.51,81.52 0.04,0.26 0.12,0.54 0.19,0.8 24.9,101.33 -37.81,195.58 -188.11,282.8 -49.22,28.22 -73.79,85.77 -59.83,140.48l122.12 476.72c5.84,21.75 25.59,36.93 48.16,36.93 16.31,0 31.61,-8 40.93,-21.4l178.71 -260.29c19.78,-28.84 52.45,-46.07 87.36,-46.07 30.48,0 59.48,13.13 79.59,36.06l7.43 8.76c59.21,65.84 68.24,165.97 20.25,243.54 -80.04,124.54 -243.85,227.93 -290.55,372.41 -39.45,120 -17.65,257.22 65.39,411.68 0.12,0.16 0.36,0.59 0.59,0.99 9.44,16.38 30.65,21.84 47.32,12.22 0.37,-0.22 0.75,-0.45 1.1,-0.66 32.51,-21.66 65.8,-62.38 99.86,-122.17 10.61,-18.55 29.14,-31.33 50.47,-34.91l110.82 -16.78c10.87,-1.61 21.96,-1.44 32.76,0.47 55.91,9.86 93.29,62.89 83.5,118.42 -1.93,10.9 -5.63,21.45 -10.95,31.17 -68.12,124.17 -165.29,241.7 -291.53,352.55 -100.07,88.03 -143.24,229.41 -129.54,424.13 0.1,0.94 0.14,1.97 0.19,2.96 1.79,51.22 -38.02,94.18 -88.88,95.97 -1.16,0.03 -2.31,0.05 -3.46,0.05l-68.53 0.05c-49.5,-0.05 -89.66,-40.49 -89.66,-90.35l-0.02 -170.61c0,-89.54 -51.36,-171.15 -132.03,-209.92 -87.19,-42.33 -142.63,-70.13 -166.31,-83.43 -60.73,-32.46 -90.7,-103.43 -68.66,-166.09 39.97,-110.56 123.88,-130.36 251.77,-59.37 6.26,3.46 13.33,5.32 20.48,5.32 23.05,0 41.74,-18.69 41.74,-41.73 0,-2.21 -0.19,-4.43 -0.52,-6.62l-31.8 -212.93c-13.11,-86.13 -73.14,-157.46 -155.46,-185.19 -225.62,-75.84 -415.65,-206.98 -570.12,-393.41 -42.81,-50.37 -40.51,-127.11 6.66,-175.44l13.28 -12.64c38.06,-34.1 93.5,-37.24 134.06,-8.21l354.22 249.23c4.3,2.97 9.44,4.57 14.66,4.57 14.1,0 25.54,-11.44 25.54,-25.54 0,-1.34 -0.12,-2.68 -0.3,-4l-0.05 0.07z"/>
   <path class="fil10" d="M14450.2 10811.17l-363.12 196.81c-119.15,-83.45 -107.31,-181.02 35.52,-292.71 16.32,-12.5 35.03,-20.36 54.62,-23.14 109.74,-15.72 200.74,23.96 272.98,119.04z"/>
   <path class="fil10" d="M12809.09 11706.16l-198.67 109.62c-22.44,-53.98 -58.55,-106.3 -108.38,-156.96 -7.32,-7.35 -11.56,-16.31 -12.4,-25.87 -2,-22.95 15.82,-43.27 39.78,-45.36 9.88,-0.87 19.75,1.51 27.96,6.73 25.4,15.18 47.22,16.34 65.49,3.46 19.94,-13.91 26.65,-40.27 15.63,-61.62 -40.54,-79.76 -91.62,-166.31 -77.92,-188.74 6.85,-11.21 25.54,-21.8 34.89,-9.96 20.34,26.98 39.64,41.52 57.91,43.59 21.18,2.5 38.41,-11.2 51.69,-41.09 23.68,-53.98 15.58,-101.95 -24.27,-143.88 -4.61,-5.18 -7.18,-11.86 -7.18,-18.78 0,-5.53 1.62,-10.92 4.68,-15.54l90.3 -139.44c1.04,-1.79 2.87,-2.85 4.87,-2.85 1.44,0 2.83,0.56 3.86,1.55l123.3 123.98c0.92,0.83 1.98,2.03 2.95,3.25 12.92,16.55 10.21,40.25 -6.05,52.96 -1.3,0.99 -2.64,1.91 -4.05,2.74 -50.87,29.63 -83.97,81.82 -99.34,156.56 -0.28,1.53 -0.42,3.15 -0.4,4.75 0.21,12.38 10.15,22.27 22.2,22.06 1.69,-0.03 3.36,-0.26 5.01,-0.71l74.08 -19.25c3.41,-0.99 6.94,-1.46 10.45,-1.46 21.66,0 39.24,17.58 39.24,39.24 0,11.93 -5.44,23.23 -14.78,30.69 -31.17,25.35 -87.43,63.13 -168.8,113.39 -13.89,8.26 -23.8,22.01 -27.4,37.94 -9.98,44.87 15.13,84.53 75.35,119z"/>
   <circle class="fil1" cx="14450.2" cy="11851.28" r="410.43"/>
   <path class="fil8" d="M21715.27 11976.46l40.49 74.12c1.15,2.17 1.77,4.64 1.77,7.14 0,8.59 -6.97,15.55 -15.56,15.55 -4.5,0 -8.78,-1.95 -11.73,-5.32 -26.57,-32.76 -38.41,-62.02 -35.52,-87.75 0.1,-1.86 0.69,-3.65 1.72,-5.18 3.27,-4.85 10.1,-5.98 15.23,-2.52 1.49,0.99 2.71,2.33 3.6,3.86l0 0.1z"/>
   <circle class="fil5" cx="17366.81" cy="12356.38" r="204.91"/>
   <circle class="fil7" cx="20621.61" cy="12842.8" r="294.59"/>
   <path class="fil10" d="M12695.75 13164.77c26.15,30.74 165.85,12.26 419.14,-55.41 755.26,-201.81 1538.76,-248.11 2350.49,-138.91 1479.37,198.48 2743.69,832.7 3792.91,1902.71 1.77,1.69 3.79,4.19 5.53,6.85 13.65,21.06 7.91,49.08 -12.85,62.54 -2.76,1.79 -5.72,3.27 -8.8,4.43 -349.47,126.71 -824.04,317.92 -1093.1,587.58 -6.4,6.45 -15.16,10.1 -24.29,10.1 -8.5,0 -16.71,-3.18 -23.02,-8.87 -1244.41,-1140.95 -2879.89,-1545.17 -4530.96,-1227.53 -16.62,2.9 -40.7,14.74 -72.27,35.5 -8.61,5.65 -18.76,8.71 -29.12,8.71 -8.26,0 -16.4,-1.93 -23.77,-5.65 -147.03,-75.94 -299.61,-171.23 -464.67,-231.02 -187.44,-67.25 -366.2,-141.37 -370.55,-370.55 -3.32,-174.41 54.37,-336.94 173.13,-487.67 4.45,-5.83 6.87,-12.92 6.87,-20.19 0,-16.79 -12.59,-30.91 -29.28,-32.79 -81.38,-9.94 -122.08,-16.57 -122.08,-19.89 0.78,-17.35 15.05,-30.98 32.37,-30.98 9.32,0 18.17,4.02 24.32,11.01l0 0.03z"/>
   <path class="fil10" d="M17358.72 16951.46l13.08 -84.08c0.45,-2.52 -0.26,-5.01 -1.9,-6.97 -130.76,-146.91 -241,-257.09 -330.68,-330.58 -990.28,-810.48 -2123.58,-1057.34 -3399.92,-740.52 -182.69,45.26 -324.71,111.69 -426.02,199.3 -163.57,140.34 -287.11,290.64 -370.55,450.9 -1.06,1.97 -3.16,3.25 -5.46,3.25 -2.03,0 -3.96,-0.99 -5.11,-2.66 -4.38,-6.81 47.31,-94.63 82.17,-158.16 15.61,-27.19 32.3,-48.85 51.58,-67.96 335.57,-330.05 530.55,-530.98 584.95,-602.8 230.02,-304.76 428.08,-550.77 594.15,-738.02 2.12,-2.59 3.25,-5.79 3.25,-9.09 0,-6.76 -4.71,-12.59 -11.32,-14.01 -100.09,-18.66 -178.97,-59.53 -236.69,-122.66 -104.63,-113.34 -176.87,-179.37 -303.3,-264.68 -15.37,-10.38 -23.26,-16.61 -23.68,-18.69 -0.17,-0.87 -0.26,-1.71 -0.26,-2.56 0,-6.19 5.01,-11.21 11.2,-11.21 3.21,0 6.27,1.37 8.38,3.77 37.36,44.44 100.07,91.38 188.08,140.79 19.47,10.73 42.44,14.99 65.07,11.84 1532.76,-216.33 2874.59,176.66 4025.54,1178.96 1.56,1.32 3.16,2.55 4.81,3.68 21.39,14.43 50.58,8.54 65.2,-13.14 1.06,-1.55 2.02,-3.2 2.9,-4.89 25.72,-51.46 64.12,-94.63 115.2,-129.49 6.21,-4.17 11.41,-4.78 15.56,-1.89 1.1,0.47 1.78,1.56 1.78,2.76 0,1.2 -0.68,2.28 -1.74,2.8 -34.91,16.22 -72.5,54.66 -112.77,115.27 -217.15,321.78 -372.84,651.66 -467.12,989.64 -2.49,8.73 -21.37,46.3 -56.66,112.73 -17.86,33.64 -36.13,72.26 -54.82,115.86 -2,4.8 -6.76,7.96 -12.03,7.96 -7.22,0 -13.09,-5.87 -13.09,-13.09 0,-0.8 0.07,-1.63 0.22,-2.4l0 0.04z"/>
   <path class="fil10" d="M13491.68 17560.57c13.3,5.81 31.99,14.94 56.07,27.42 81.45,42.09 159.01,53.81 203.9,30.72 952.02,-474.18 2016.42,-164.64 2575.69,742.17 11.91,19.3 33.03,31.12 55.74,31.12 17.42,0 34.16,-6.97 46.42,-19.33l140.74 -140.72c14.13,-14.05 22.06,-33.14 22.06,-53.03 0,-14.83 -4.43,-29.35 -12.69,-41.66 -551.83,-813.36 -1318.93,-1159.64 -2301.32,-1038.82 -290.64,35.71 -592.9,159.86 -906.8,372.44 -15.37,10.97 -36.11,12.24 -53.39,3.16 -308.46,-159.48 -643.54,-534.42 -530.81,-894.38 9.11,-28.86 27.78,-52.4 52.78,-67.35 825.54,-500.68 1684.87,-647.44 2577.97,-440.25 731.79,169.41 1375.17,586.06 1841.03,1159.05 8.76,10.38 10.74,24.93 5.06,37.19 -127.77,292.27 -338.25,677.18 -588.01,887.69 -126.43,106.49 -202.41,206.14 -321.38,287.72 -217.15,148.23 -454.24,270.94 -711.24,368.09 -21.14,7.6 -44.51,0.07 -56.75,-18.25 -330.45,-493.97 -786.33,-645.87 -1367.61,-455.72 -2.05,0.64 -4.19,0.97 -6.33,0.97 -10.52,0 -19.38,-7.96 -20.43,-18.43 -38.63,-424.11 -317.67,-536.84 -706.3,-747.96 -1.39,-1.35 -2.19,-3.18 -2.19,-5.11 0,-3.79 3.06,-6.85 6.85,-6.85 0.33,0 0.66,0.02 0.99,0.07l-0.05 0.05z"/>
   <path class="fil8" d="M17351.87 17092.23c1.24,14.52 -2.08,26.57 -9.96,36.11 -3.65,4.47 -9.18,7.11 -15,7.11 -10.66,0 -19.3,-8.64 -19.3,-19.31 0,-0.51 0.03,-1.03 0.07,-1.55 0.8,-11.18 4.73,-21.75 11.8,-31.71 1.38,-2.26 3.43,-4.23 5.83,-5.62 8.36,-4.83 19.16,-1.72 24.15,6.89 1.37,2.41 2.22,5.07 2.43,7.8l-0.02 0.28z"/>
   <path class="fil10" d="M14272.69 18456.8c0.82,1.25 6.64,25.33 17.44,72.24 0.33,1.39 0.5,2.85 0.5,4.31 0,11.7 -9.49,21.19 -21.19,21.19 -3.9,0 -7.72,-1.09 -11.04,-3.11 -5.84,-3.72 -9.37,-32.56 -10.61,-86.53 0.02,-0.14 0.02,-0.21 0.02,-0.28 0,-7.56 6.14,-13.7 13.7,-13.7 4.47,0 8.64,2.16 11.2,5.81l-0.02 0.07z"/>
   <path class="fil10" d="M15249.27 18944.46c-29.29,13.07 -127.68,-12.45 -186.22,19.31 -61.86,34.03 -149.48,42.34 -262.84,24.9 -217.98,-33.64 -380.75,-143.02 -488.28,-328.21 -1.86,-3.34 -2.87,-7.11 -2.87,-10.92 0,-12.03 9.77,-21.8 21.8,-21.8 1.17,0 2.35,0.1 3.53,0.29 19.49,3.34 33.8,3.79 42.93,1.29 364.13,-100.06 658.94,-12.45 884.4,262.82 5.04,6 7.79,13.6 7.79,21.44 0,13.4 -7.93,25.49 -20.22,30.84l-0.02 0.04z"/>
   <path class="fil8" d="M15428 18840.44c8.31,-3.31 25.96,-3.93 52.94,-1.85 9.11,1.03 15.96,8.75 15.96,17.89 0,6.96 -4.03,13.32 -10.31,16.31 -12.48,5.44 -31.19,4.61 -56.1,-2.45 -2.09,-0.64 -4.21,-1.77 -6.02,-3.3 -6.85,-5.74 -7.93,-15.74 -2.4,-22.31 1.55,-1.86 3.55,-3.32 5.79,-4.24l0.14 -0.05z"/>
   <g>
    <path class="fil7" d="M16347.61 5802.64c0,144.77 -45.11,333.1 -69.42,476.6 -18.72,110.53 -40.28,364.58 -174.65,373.25 -141.72,-36.5 -45,-381.95 -28.22,-479.73 16.56,-96.51 56.7,-457.57 100.72,-512.25 43.2,-20.11 115.62,-33.66 158.12,-3.99 55.17,38.51 13.45,101 13.45,146.12z"/>
    <path class="fil7" d="M14644.85 5908.95c-15.73,-84.19 84.42,-415.67 255.31,81.16 50.11,145.69 144.09,393.24 176.81,530.98 35.77,150.52 -105.75,362.9 -261.61,-75.49 -53.36,-150.09 -143.77,-393.59 -170.51,-536.65z"/>
    <path class="fil7" d="M17153.28 7003.72c-50.58,-166.5 234.28,-516.22 345.43,-680.41 44.67,-65.96 163.97,-145.69 235.3,-75.52 69.04,67.94 -169.89,374.51 -216.06,439.95 -67.04,94.98 -235,354.19 -364.67,315.98z"/>
    <path class="fil7" d="M14041.88 7229.63c-161.24,47.36 -324.05,-166.56 -427.48,-267.51 -71.36,-69.65 -331.58,-338.11 -244.21,-432.41 89.71,-96.79 725.28,523.44 671.69,699.92z"/>
    <path class="fil7" d="M18807.14 7397.31c-63.38,113.64 -546.45,363.86 -704.53,423.48 -98.99,37.32 -304.17,39.93 -185.72,-88.64 105.26,-114.26 311.89,-219.49 451.96,-300.7 81.89,-47.5 164.72,-90.84 249.15,-127.12 222.92,-95.85 208.03,59.11 189.14,92.98z"/>
    <path class="fil7" d="M12442.1 7822.57c-0.13,-202.22 418.46,-5.51 500,26.57 96.86,38.1 460.95,169.53 501.89,253.25 136.54,279.21 -1001.85,-167.33 -1001.89,-279.82z"/>
    <path class="fil7" d="M18210.57 8872.39c82.08,-138.53 295.91,-144.35 447.38,-146.7 129.12,-2 480.49,-20.56 572.85,9.15 43.3,130.66 -61.09,144.66 -154.11,163.43l-607.17 67.4c-139.68,-0.49 -185.37,30.9 -258.95,-93.28z"/>
    <path class="fil7" d="M12287.21 9329.81c102.68,-39.78 773.48,-89.59 879.73,-68.78 103.23,20.23 146.14,111.15 46.09,168.51 -121.78,69.8 -411.46,55.22 -567.17,66.91 -266.29,20.03 -467.74,105.24 -358.65,-166.64z"/>
   </g>
  </g>
 </g>
</svg>
